mtllib chest.mtl
o body
v 0.062500 -0.750000 0.437500
v 0.062500 -0.687500 0.500000
v 0.000000 -0.687500 0.437500
v 0.125000 0.000000 0.437500
v 0.062500 0.000000 0.375000
v 0.062500 -0.750000 -0.437500
v 0.000000 -0.687500 -0.437500
v 0.062500 -0.687500 -0.500000
v 0.062500 0.000000 -0.375000
v 0.125000 0.000000 -0.437500
v 0.937500 -0.750000 0.437500
v 1.000000 -0.687500 0.437500
v 0.937500 -0.687500 0.500000
v 0.937500 0.000000 0.375000
v 0.875000 0.000000 0.437500
v 0.937500 -0.750000 -0.437500
v 0.937500 -0.687500 -0.500000
v 1.000000 -0.687500 -0.437500
v 0.875000 0.000000 -0.437500
v 0.937500 0.000000 -0.375000
v 0.000000 0.000000 0.437500
v 0.062500 0.000000 0.500000
v 0.062500 0.000000 -0.500000
v 0.000000 0.000000 -0.437500
v 1.000000 0.000000 -0.437500
v 0.937500 0.000000 -0.500000
v 0.937500 0.000000 0.500000
v 1.000000 0.000000 0.437500
v 0.062500 -0.625000 0.375000
v 0.125000 -0.625000 0.437500
v 0.125000 -0.687500 0.375000
v 0.062500 -0.625000 -0.375000
v 0.125000 -0.687500 -0.375000
v 0.125000 -0.625000 -0.437500
v 0.875000 -0.625000 -0.437500
v 0.875000 -0.687500 -0.375000
v 0.937500 -0.625000 -0.375000
v 0.937500 -0.625000 0.375000
v 0.875000 -0.687500 0.375000
v 0.875000 -0.625000 0.437500
v 0.968750 -0.687500 0.468750
v 0.906250 0.000000 0.406250
v 0.968750 0.000000 0.468750
v 0.906250 -0.625000 0.406250
v 0.031250 -0.687500 -0.468750
v 0.093750 0.000000 -0.406250
v 0.031250 0.000000 -0.468750
v 0.093750 -0.625000 -0.406250
v 0.968750 -0.687500 -0.468750
v 0.906250 0.000000 -0.406250
v 0.968750 0.000000 -0.468750
v 0.906250 -0.625000 -0.406250
v 0.031250 -0.687500 0.468750
v 0.093750 0.000000 0.406250
v 0.031250 0.000000 0.468750
v 0.093750 -0.625000 0.406250
v 0.093750 -0.656250 0.375000
v 0.093750 -0.656250 -0.375000
v 0.125000 -0.656250 -0.406250
v 0.875000 -0.656250 -0.406250
v 0.125000 -0.656250 0.406250
v 0.875000 -0.656250 0.406250
v 0.906250 -0.656250 -0.375000
v 0.906250 -0.656250 0.375000
v 0.031250 -0.718750 0.437500
v 0.031250 -0.718750 -0.437500
v 0.062500 -0.718750 -0.468750
v 0.937500 -0.718750 -0.468750
v 0.969180 -0.718320 0.437500
v 0.969180 -0.718320 -0.437500
v 0.062500 -0.718750 0.468750
v 0.937500 -0.718750 0.468750
v 0.995000 -0.187500 0.031250
v 0.995000 -0.062500 0.031250
v 0.995000 -0.187500 -0.031250
v 0.995000 -0.062500 -0.031250
v 1.057500 -0.187500 0.031250
v 1.057500 -0.062500 0.031250
v 1.057500 -0.187500 -0.031250
v 1.057500 -0.062500 -0.031250
vn -0.0000 -0.0000 1.0000
vn -1.0000 -0.0000 -0.0000
vn -0.0000 -0.0000 -1.0000
vn 1.0000 -0.0000 -0.0000
vn -0.0000 1.0000 -0.0000
vn 0.5773 -0.5774 -0.5774
vn 0.5773 -0.5773 -0.5774
vn 0.5774 -0.5774 -0.5774
vn 0.5774 -0.5773 -0.5774
vn -0.5774 0.5774 0.5774
vn -0.7071 -0.7071 -0.0000
vn -0.7071 -0.0000 0.7071
vn -0.7071 -0.0000 -0.7071
vn -0.0000 -0.7071 -0.7071
vn 0.7071 -0.0000 -0.7071
vn 0.7071 -0.7071 -0.0000
vn 0.7071 -0.0000 0.7071
vn -0.0000 -0.7071 0.7071
vn 0.7071 0.7071 -0.0000
vn -0.0000 0.7071 0.7071
vn -0.7071 0.7071 -0.0000
vn -0.0000 0.7071 -0.7071
vn -0.0000 -1.0000 -0.0000
vn 0.5774 -0.5773 0.5774
vn 0.5773 -0.5773 0.5774
vn 0.5774 -0.5774 0.5774
vn 0.5773 -0.5774 0.5774
vn -0.5774 0.5774 -0.5774
vn 0.5774 0.5774 0.5774
vn -0.5774 -0.5774 -0.5774
vn 0.5774 0.5774 -0.5774
vn -0.5774 -0.5774 0.5774
vt 0.640625 0.468750
vt 0.640625 0.328125
vt 0.453125 0.328125
vt 0.453125 0.468750
vt 0.015625 0.343750
vt 0.203125 0.343750
vt 0.203125 0.484375
vt 0.015625 0.484375
vt 0.671875 0.343750
vt 0.859375 0.343750
vt 0.859375 0.484375
vt 0.671875 0.484375
vt 0.421875 0.468750
vt 0.421875 0.328125
vt 0.234375 0.328125
vt 0.234375 0.468750
vt 0.203125 0.468750
vt 0.203125 0.328125
vt 0.015625 0.328125
vt 0.015625 0.468750
vt 0.453125 0.343750
vt 0.640625 0.343750
vt 0.640625 0.484375
vt 0.453125 0.484375
vt 0.859375 0.468750
vt 0.859375 0.328125
vt 0.671875 0.328125
vt 0.671875 0.468750
vt 0.406295 0.812500
vt 0.406295 0.968750
vt 0.250000 0.968750
vt 0.250000 0.812500
vt 0.234375 0.343750
vt 0.421875 0.343750
vt 0.421875 0.484375
vt 0.234375 0.484375
vt 0.234375 0.500000
vt 0.218750 0.500000
vt 0.875000 0.468750
vt 0.875000 0.484375
vt 0.000000 0.468750
vt 0.453125 0.703125
vt 0.468750 0.687500
vt 0.625000 0.687500
vt 0.640625 0.703125
vt 0.453125 0.687500
vt 0.437500 0.703125
vt 0.640625 0.500000
vt 0.625000 0.500000
vt 0.656250 0.484375
vt 0.640625 0.687500
vt 0.640625 0.671875
vt 0.656250 0.687500
vt 0.656250 0.703125
vt 0.453125 0.500000
vt 0.453125 0.515625
vt 0.437500 0.500000
vt 0.437500 0.484375
vt 0.875000 0.343750
vt 0.875000 0.328125
vt 0.000000 0.343750
vt 0.406295 0.796875
vt 0.421875 0.812500
vt 0.437500 0.468750
vt 0.437500 0.328125
vt 0.218750 0.328125
vt 0.218750 0.468750
vt 0.000000 0.328125
vt 0.656250 0.328125
vt 0.656250 0.468750
vt 0.437500 0.343750
vt 0.218750 0.484375
vt 0.218750 0.343750
vt 0.656250 0.343750
vt 0.000000 0.484375
vt 0.234375 0.687500
vt 0.421875 0.500000
vt 0.421875 0.687500
vt 0.656250 0.500000
vt 0.640625 0.515625
vt 0.468750 0.500000
vt 0.437500 0.687500
vt 0.453125 0.671875
vt 0.234375 0.812500
vt 0.250000 0.796875
vt 0.406295 0.984365
vt 0.250000 0.984365
vt 0.421875 0.968750
vt 0.234375 0.968750
vt 0.421875 0.703125
vt 0.234375 0.703125
vt 0.218750 0.687500
vt 0.093750 0.921875
vt 0.093750 0.953125
vt 0.078125 0.953125
vt 0.078125 0.921875
vt 0.062500 0.921875
vt 0.062500 0.953125
vt 0.046875 0.953125
vt 0.046875 0.921875
vt 0.031250 0.953125
vt 0.031250 0.921875
vt 0.062500 0.984395
vt 0.078125 0.984395
vt 0.078125 1.000000
vt 0.062500 1.000000
vt 0.046875 0.953145
vt 0.062500 0.953145
vt 0.062500 0.968750
vt 0.046875 0.968750
s 0
usemtl material
f 13/1/1 27/2/1 22/3/1 2/4/1
f 19/5/1 10/6/1 34/7/1 35/8/1
f 14/9/2 20/10/2 37/11/2 38/12/2
f 3/13/2 21/14/2 24/15/2 7/16/2
f 8/17/3 23/18/3 26/19/3 17/20/3
f 4/21/3 15/22/3 40/23/3 30/24/3
f 18/25/4 25/26/4 28/27/4 12/28/4
f 36/29/5 33/30/5 31/31/5 39/32/5
f 9/33/4 5/34/4 29/35/4 32/36/4
f 16/37/6 68/38/6 70/36/6
f 49/39/7 70/11/7 68/40/7
f 17/20/8 49/41/8 68/8/8
f 18/25/9 70/11/9 49/39/9
f 21/42/5 5/43/5 9/44/5 24/45/5
f 54/46/5 5/43/5 21/42/5 55/47/5
f 50/48/5 20/49/5 25/23/5 51/50/5
f 46/51/5 10/52/5 23/53/5 47/54/5
f 42/55/5 15/56/5 27/57/5 43/58/5
f 63/26/10 37/10/10 52/59/10
f 60/26/10 63/60/10 52/59/10
f 35/5/10 60/19/10 52/61/10
f 36/29/10 63/62/10 60/63/10
f 66/36/11 65/35/11 3/13/11 7/16/11
f 53/64/12 55/65/12 21/14/12 3/13/12
f 47/66/13 45/67/13 7/16/13 24/15/13
f 68/8/14 67/7/14 8/17/14 17/20/14
f 51/68/15 49/41/15 17/20/15 26/19/15
f 69/12/16 70/11/16 18/25/16 12/28/16
f 43/69/17 41/70/17 12/28/17 28/27/17
f 71/24/18 72/23/18 13/1/18 2/4/18
f 57/14/19 58/15/19 32/33/19 29/34/19
f 59/18/20 60/19/20 35/5/20 34/6/20
f 63/26/21 64/27/21 38/9/21 37/10/21
f 62/2/22 61/3/22 30/21/22 40/22/22
f 54/71/15 56/58/15 29/35/15 5/34/15
f 48/72/17 46/73/17 9/33/17 32/36/17
f 42/74/13 44/50/13 40/23/13 15/22/13
f 52/75/12 50/61/12 19/5/12 35/8/12
f 6/76/23 16/37/23 11/77/23 1/78/23
f 26/79/5 23/53/5 10/52/5 19/80/5
f 25/23/5 20/49/5 14/81/5 28/24/5
f 22/82/5 27/57/5 15/56/5 4/83/5
f 14/9/13 38/12/13 44/50/13 42/74/13
f 27/2/17 13/1/17 41/70/17 43/69/17
f 14/81/5 42/55/5 43/58/5 28/24/5
f 34/7/17 10/6/17 46/73/17 48/72/17
f 23/18/13 8/17/13 45/67/13 47/66/13
f 9/44/5 46/51/5 47/54/5 24/45/5
f 37/11/12 20/10/12 50/59/12 52/40/12
f 25/26/15 18/25/15 49/39/15 51/60/15
f 19/80/5 50/48/5 51/50/5 26/79/5
f 4/21/15 30/24/15 56/58/15 54/71/15
f 2/4/12 22/3/12 55/65/12 53/64/12
f 4/83/5 54/46/5 55/47/5 22/82/5
f 69/12/24 12/28/24 41/70/24
f 69/12/25 41/70/25 72/23/25
f 13/1/26 72/23/26 41/70/26
f 11/77/27 69/35/27 72/57/27
f 39/32/28 62/84/28 64/85/28
f 64/27/28 62/2/28 44/74/28
f 38/9/28 64/27/28 44/74/28
f 40/22/28 44/74/28 62/2/28
f 31/31/19 33/30/19 58/86/19 57/87/19
f 33/30/20 36/29/20 60/63/20 59/88/20
f 39/32/22 31/31/22 61/89/22 62/84/22
f 36/29/21 39/32/21 64/85/21 63/62/21
f 6/76/11 1/78/11 65/90/11 66/91/11
f 16/37/14 6/76/14 67/92/14 68/38/14
f 11/77/16 16/37/16 70/36/16 69/35/16
f 1/78/18 11/77/18 72/57/18 71/82/18
f 33/30/29 59/88/29 58/86/29
f 34/6/29 48/73/29 59/18/29
f 59/18/29 48/73/29 58/15/29
f 48/73/29 32/33/29 58/15/29
f 7/16/30 45/67/30 66/36/30
f 66/36/30 45/67/30 67/7/30
f 8/17/30 67/7/30 45/67/30
f 6/76/30 66/91/30 67/92/30
f 31/31/31 57/87/31 61/89/31
f 30/21/31 61/3/31 56/71/31
f 61/3/31 57/14/31 56/71/31
f 29/34/31 56/71/31 57/14/31
f 3/13/32 65/35/32 53/64/32
f 2/4/32 53/64/32 71/24/32
f 53/64/32 65/35/32 71/24/32
f 1/78/32 71/82/32 65/90/32
f 75/93/3 76/94/3 80/95/3 79/96/3
f 79/97/4 80/98/4 78/99/4 77/100/4
f 77/100/1 78/99/1 74/101/1 73/102/1
f 75/103/23 79/104/23 77/105/23 73/106/23
f 80/107/5 76/108/5 74/109/5 78/110/5
o top
v 0.062500 0.000000 0.375000
v 0.125000 0.000000 0.437500
v 0.062500 0.187500 0.500000
v 0.062500 0.250000 0.437500
v 0.000000 0.187500 0.437500
v 0.125000 0.000000 -0.437500
v 0.062500 0.000000 -0.375000
v 0.062500 0.250000 -0.437500
v 0.062500 0.187500 -0.500000
v 0.000000 0.187500 -0.437500
v 0.875000 0.000000 0.437500
v 0.937500 0.000000 0.375000
v 0.937500 0.250000 0.437500
v 0.937500 0.187500 0.500000
v 1.000000 0.187500 0.437500
v 0.937500 0.000000 -0.375000
v 0.875000 0.000000 -0.437500
v 0.937500 0.250000 -0.437500
v 1.000000 0.187500 -0.437500
v 0.937500 0.187500 -0.500000
v 0.000000 0.000000 -0.437500
v 0.062500 0.000000 -0.500000
v 0.062500 0.000000 0.500000
v 0.000000 0.000000 0.437500
v 0.937500 0.000000 -0.500000
v 1.000000 0.000000 -0.437500
v 1.000000 0.000000 0.437500
v 0.937500 0.000000 0.500000
v 0.062500 0.125000 -0.375000
v 0.125000 0.125000 -0.437500
v 0.125000 0.187500 -0.375000
v 0.062500 0.125000 0.375000
v 0.125000 0.187500 0.375000
v 0.125000 0.125000 0.437500
v 0.875000 0.125000 -0.437500
v 0.937500 0.125000 -0.375000
v 0.875000 0.187500 -0.375000
v 0.937500 0.125000 0.375000
v 0.875000 0.125000 0.437500
v 0.875000 0.187500 0.375000
v 0.906250 0.000000 -0.406250
v 0.968750 0.187500 -0.468750
v 0.968750 0.000000 -0.468750
v 0.906250 0.125000 -0.406250
v 0.906388 0.000000 0.406112
v 0.968888 0.187500 0.468612
v 0.968888 0.000000 0.468612
v 0.906388 0.125000 0.406112
v 0.093750 0.000000 0.406250
v 0.031250 0.187500 0.468750
v 0.031250 0.000000 0.468750
v 0.093750 0.125000 0.406250
v 0.093814 0.000000 -0.406314
v 0.031314 0.187500 -0.468814
v 0.031314 0.000000 -0.468814
v 0.093814 0.125000 -0.406314
v 0.062500 0.218750 -0.468750
v 0.937500 0.218750 -0.468750
v 0.031250 0.218750 0.437500
v 0.031250 0.218750 -0.437500
v 0.062500 0.218750 0.468750
v 0.937500 0.218750 0.468750
v 0.968750 0.218750 0.437500
v 0.968750 0.218750 -0.437500
v 0.125000 0.156250 0.406250
v 0.875000 0.156250 0.406250
v 0.906250 0.156250 -0.375000
v 0.906250 0.156250 0.375000
v 0.125000 0.156250 -0.406250
v 0.875000 0.156250 -0.406250
v 0.093750 0.156250 -0.375000
v 0.093750 0.156250 0.375000
v 1.000000 -0.187500 0.062500
v 1.000000 0.062500 0.062500
v 1.000000 -0.187500 -0.062500
v 1.000000 0.062500 -0.062500
v 1.062500 -0.187500 0.062500
v 1.062500 0.062500 0.062500
v 1.062500 -0.187500 -0.062500
v 1.062500 0.062500 -0.062500
vn -0.0000 1.0000 -0.0000
vn -0.0000 -1.0000 -0.0000
vn -1.0000 -0.0000 -0.0000
vn 1.0000 -0.0000 -0.0000
vn -0.0000 -0.0000 1.0000
vn -0.0000 -0.0000 -1.0000
vn 0.5774 0.5774 0.5774
vn -0.5774 -0.5774 -0.5774
vn -0.7071 -0.0000 0.7071
vn -0.7071 0.7071 -0.0000
vn -0.7071 -0.0000 -0.7071
vn -0.0000 0.7071 -0.7071
vn 0.7071 -0.0000 -0.7071
vn 0.7071 0.7071 -0.0000
vn 0.7071 -0.0000 0.7071
vn -0.0000 0.7071 0.7071
vn 0.7071 -0.7071 -0.0000
vn -0.0000 -0.7071 0.7071
vn -0.7071 -0.7071 -0.0000
vn -0.0000 -0.7071 -0.7071
vn -0.5774 0.5774 0.5774
vn 0.5774 -0.5774 -0.5774
vn -0.5774 -0.5774 0.5774
vn 0.5774 0.5774 -0.5774
vn 0.5774 -0.5774 0.5774
vn -0.5774 0.5774 -0.5774
vt 0.640625 0.796875
vt 0.640625 0.984365
vt 0.453125 0.984365
vt 0.453125 0.796875
vt 0.250000 0.968750
vt 0.250000 0.812500
vt 0.406295 0.812500
vt 0.406295 0.968750
vt 0.421875 0.765625
vt 0.421875 0.718750
vt 0.234375 0.718750
vt 0.234375 0.765625
vt 0.859375 0.765625
vt 0.859375 0.718750
vt 0.671875 0.718750
vt 0.671875 0.765625
vt 0.203125 0.781250
vt 0.015625 0.781250
vt 0.015625 0.718750
vt 0.203125 0.718750
vt 0.640625 0.781250
vt 0.453125 0.781250
vt 0.453125 0.718750
vt 0.640625 0.718750
vt 0.203125 0.765625
vt 0.015625 0.765625
vt 0.859375 0.781250
vt 0.671875 0.781250
vt 0.640625 0.765625
vt 0.453125 0.765625
vt 0.234375 0.781250
vt 0.421875 0.781250
vt 0.406295 0.796875
vt 0.250000 0.796875
vt 0.640625 0.703125
vt 0.656250 0.718750
vt 0.421875 0.796875
vt 0.437500 0.781250
vt 0.687500 0.703125
vt 0.671875 0.703125
vt 0.687500 0.718750
vt 0.437500 0.984365
vt 0.421875 0.968750
vt 0.421875 0.812500
vt 0.437500 0.796875
vt 0.234375 1.000000
vt 0.250000 0.984365
vt 0.406295 0.984365
vt 0.421875 1.000000
vt 0.687500 0.718750
vt 0.671875 0.718750
vt 0.218750 0.984365
vt 0.218750 0.796875
vt 0.234375 0.812500
vt 0.234375 0.968750
vt 0.234375 0.984365
vt 0.218750 1.000000
vt 0.421875 0.984365
vt 0.437500 1.000000
vt 0.234375 0.796875
vt 0.218750 0.781250
vt 0.437500 0.765625
vt 0.437500 0.718750
vt 0.421875 0.703125
vt 0.234375 0.703125
vt 0.218750 0.718750
vt 0.218750 0.765625
vt 0.203125 0.703125
vt 0.015625 0.703125
vt 0.000000 0.718750
vt 0.000000 0.765625
vt 0.859375 0.703125
vt 0.656250 0.765625
vt 0.453125 0.703125
vt 0.656250 0.781250
vt 0.875000 0.718750
vt 0.875000 0.781250
vt 0.000000 0.781250
vt 0.875000 0.765625
vt 0.437500 0.703125
vt 0.468750 0.718750
vt 0.468750 0.703125
vt 0.453125 0.718750
vt 0.453125 1.000000
vt 0.656250 0.796875
vt 0.656250 0.984365
vt 0.640625 1.000000
vt 0.875000 0.703125
vt 0.015635 0.718750
vt 0.031250 0.718750
vt 0.031250 0.703125
vt 0.250000 0.718750
vt 0.250000 0.703125
vt 0.234375 0.718750
vt 0.218750 0.703125
vt 0.093750 0.984395
vt 0.093750 0.921875
vt 0.062500 0.921875
vt 0.062500 0.984375
vt 0.046875 0.921875
vt 0.046875 0.984375
vt 0.015625 0.984375
vt 0.015625 0.921875
vt 0.046875 0.921875
vt 0.015625 0.921875
vt 0.000000 0.921875
vt 0.000000 0.984375
vt 0.046875 1.000000
vt 0.046875 0.984395
vt 0.015625 0.984395
vt 0.015625 1.000000
vt 0.078125 0.984395
vt 0.078125 1.000000
vt 0.046875 1.000000
vt 0.046875 0.984395
s 0
usemtl material
f 98/111/33 88/112/33 84/113/33 93/114/33
f 111/115/34 117/116/34 120/117/34 113/118/34
f 104/119/35 85/120/35 90/121/35 101/122/35
f 106/123/36 99/124/36 95/125/36 107/126/36
f 86/127/37 97/128/37 115/129/37 110/130/37
f 91/131/38 82/132/38 114/133/38 119/134/38
f 102/135/38 89/130/38 100/129/38 105/136/38
f 96/137/35 92/138/35 118/125/35 116/124/35
f 108/139/37 94/134/37 83/133/37 103/140/37
f 106/141/34 107/142/34 92/143/34 96/144/34
f 142/145/39 94/134/39 126/146/39
f 125/147/34 92/143/34 107/142/34 127/148/34
f 143/149/39 142/150/39 126/151/39
f 103/152/34 82/153/34 91/154/34 108/155/34
f 93/114/39 142/155/39 143/132/39
f 101/156/34 87/157/34 81/158/34 104/159/34
f 95/160/39 143/149/39 126/161/39
f 102/162/34 105/163/34 97/164/34 86/165/34
f 133/166/34 87/157/34 101/156/34 135/167/34
f 129/168/34 82/153/34 103/152/34 131/169/34
f 121/170/34 97/164/34 105/163/34 123/171/34
f 118/125/40 128/146/40 148/150/40
f 119/134/40 146/145/40 128/146/40
f 128/146/40 146/145/40 148/150/40
f 120/118/40 148/153/40 146/158/40
f 131/172/41 130/173/41 85/120/41 104/119/41
f 139/174/42 140/175/42 90/121/42 85/120/42
f 134/176/43 135/177/43 101/122/43 90/121/43
f 137/178/44 138/179/44 100/129/44 89/130/44
f 122/180/45 123/181/45 105/136/45 100/129/45
f 144/182/46 143/150/46 95/125/46 99/124/46
f 126/146/47 127/183/47 107/126/47 95/125/47
f 142/145/48 141/184/48 83/133/48 94/134/48
f 151/175/49 152/174/49 112/120/49 109/121/49
f 150/179/50 149/178/50 110/130/50 115/129/50
f 148/150/51 147/182/51 116/124/51 118/125/51
f 145/184/52 146/145/52 119/134/52 114/133/52
f 125/185/43 128/146/43 118/125/43 92/138/43
f 124/186/41 121/187/41 96/137/41 116/124/41
f 133/171/47 136/176/47 109/121/47 87/141/47
f 132/173/45 129/148/45 81/142/45 112/120/45
f 81/142/36 87/141/36 109/121/36 112/120/36
f 115/129/41 97/128/41 121/188/41 124/180/41
f 99/124/45 106/123/45 123/189/45 122/186/45
f 96/144/34 121/170/34 123/171/34 106/141/34
f 91/131/43 119/134/43 128/146/43 125/185/43
f 94/134/47 108/139/47 127/183/47 126/146/47
f 91/154/34 125/147/34 127/148/34 108/155/34
f 114/133/45 82/132/45 129/148/45 132/173/45
f 103/140/41 83/133/41 130/173/41 131/172/41
f 81/158/34 129/168/34 131/169/34 104/159/34
f 86/127/47 110/130/47 136/176/47 133/171/47
f 89/130/43 102/135/43 135/177/43 134/176/43
f 86/165/34 133/166/34 135/167/34 102/162/34
f 139/174/53 85/120/53 130/173/53
f 139/174/53 130/173/53 141/190/53
f 83/191/53 141/192/53 130/193/53
f 84/113/53 139/194/53 141/152/53
f 112/120/54 152/174/54 132/173/54
f 132/173/54 152/174/54 145/184/54
f 114/133/54 132/173/54 145/184/54
f 113/115/54 145/157/54 152/165/54
f 88/112/44 98/111/44 138/195/44 137/196/44
f 84/113/42 88/112/42 140/197/42 139/194/42
f 93/114/48 84/113/48 141/152/48 142/155/48
f 98/111/46 93/114/46 143/132/46 144/131/46
f 113/115/52 120/118/52 146/158/52 145/157/52
f 120/118/51 117/117/51 147/154/51 148/153/51
f 117/117/50 111/116/50 149/144/50 150/143/50
f 111/116/49 113/115/49 152/165/49 151/164/49
f 115/129/55 124/180/55 150/179/55
f 117/117/55 150/143/55 147/154/55
f 150/198/55 124/186/55 147/182/55
f 116/124/55 147/182/55 124/186/55
f 98/111/56 144/131/56 138/195/56
f 99/124/56 122/186/56 144/182/56
f 144/198/56 122/186/56 138/182/56
f 122/199/56 100/200/56 138/201/56
f 111/116/57 151/164/57 149/144/57
f 151/175/57 136/176/57 149/178/57
f 136/176/57 110/130/57 149/178/57
f 151/175/57 109/121/57 136/176/57
f 90/202/58 140/203/58 134/204/58
f 134/176/58 140/205/58 137/178/58
f 89/130/58 134/176/58 137/178/58
f 88/112/58 137/196/58 140/197/58
f 153/206/35 154/207/35 156/208/35 155/209/35
f 155/209/38 156/208/38 160/210/38 159/211/38
f 159/212/36 160/213/36 158/214/36 157/211/36
f 157/212/37 158/215/37 154/216/37 153/217/37
f 155/218/34 159/219/34 157/220/34 153/221/34
f 160/222/33 156/223/33 154/224/33 158/225/33
