mtllib compass.mtl
o arrow_0
v -0.067880 0.251127 0.028117
v 0.000000 0.275000 -0.000000
v -0.067880 0.251127 -0.028117
v -0.067880 0.048873 0.028117
v -0.109833 0.111373 0.045494
v -0.109833 0.111373 -0.045494
v -0.067880 0.048873 -0.028117
v -0.109833 0.188627 0.045494
v -0.109833 0.188627 -0.045494
v 0.000000 0.025000 -0.000000
v -0.028117 0.048873 -0.067880
v -0.045494 0.188627 -0.109833
v -0.045494 0.111373 -0.109833
v -0.028117 0.251127 -0.067880
v 0.028117 0.048873 -0.067880
v 0.045494 0.188627 -0.109833
v 0.045494 0.111373 -0.109833
v 0.028117 0.251127 -0.067880
v 0.067880 0.048873 -0.028117
v 0.109833 0.188627 -0.045494
v 0.109833 0.111373 -0.045494
v 0.067880 0.251127 -0.028117
v 0.067880 0.048873 0.028117
v 0.109833 0.188627 0.045494
v 0.109833 0.111373 0.045494
v 0.067880 0.251127 0.028117
v 0.028117 0.048873 0.067880
v 0.045494 0.188627 0.109833
v 0.045494 0.111373 0.109833
v 0.028117 0.251127 0.067880
v -0.028117 0.048873 0.067880
v -0.045494 0.188627 0.109833
v -0.045494 0.111373 0.109833
v -0.028117 0.251127 0.067880
v 0.120000 0.111000 0.285000
v 0.120000 0.189000 0.285000
v 0.000000 0.189000 0.210000
v 0.000000 0.111000 0.210000
v 0.005000 0.159000 -0.560000
v -0.005000 0.159000 -0.560000
v -0.005000 0.141000 -0.560000
v 0.005000 0.141000 -0.560000
v -0.120000 0.189000 0.285000
v -0.120000 0.111000 0.285000
vn -0.3318 0.9434 -0.0000
vn -0.8303 -0.5573 -0.0000
vn -0.8303 0.5573 -0.0000
vn -0.3318 -0.9434 -0.0000
vn -1.0000 -0.0000 -0.0000
vn -0.2346 -0.9434 -0.2346
vn -0.7071 -0.0000 -0.7071
vn -0.2346 0.9434 -0.2346
vn -0.5871 -0.5573 -0.5871
vn -0.5871 0.5573 -0.5871
vn -0.0000 -0.9434 -0.3318
vn -0.0000 -0.0000 -1.0000
vn -0.0000 0.9434 -0.3318
vn -0.0000 -0.5573 -0.8303
vn -0.0000 0.5573 -0.8303
vn 0.2346 -0.9434 -0.2346
vn 0.7071 -0.0000 -0.7071
vn 0.2346 0.9434 -0.2346
vn 0.5871 -0.5573 -0.5871
vn 0.5871 0.5573 -0.5871
vn 0.3318 -0.9434 -0.0000
vn 1.0000 -0.0000 -0.0000
vn 0.3318 0.9434 -0.0000
vn 0.8303 -0.5573 -0.0000
vn 0.8303 0.5573 -0.0000
vn 0.2346 -0.9434 0.2346
vn 0.7071 -0.0000 0.7071
vn 0.2346 0.9434 0.2346
vn 0.5871 -0.5573 0.5871
vn 0.5871 0.5573 0.5871
vn -0.0000 -0.9434 0.3318
vn -0.0000 -0.0000 1.0000
vn -0.0000 0.9434 0.3318
vn -0.0000 -0.5573 0.8303
vn -0.0000 0.5573 0.8303
vn -0.2346 -0.9434 0.2346
vn -0.7071 -0.0000 0.7071
vn -0.2346 0.9434 0.2346
vn -0.5871 -0.5573 0.5871
vn -0.5871 0.5573 0.5871
vn -0.5300 -0.0000 0.8480
vn 0.0224 0.9990 -0.0388
vn 0.0224 -0.9990 -0.0388
vn -0.0242 0.9990 -0.0388
vn 0.9909 -0.0000 -0.1349
vn 0.5300 -0.0000 0.8480
vn -0.9909 -0.0000 -0.1349
vn -0.0242 -0.9990 -0.0388
vt 0.682120 0.901477
vt 0.693899 0.926016
vt 0.668218 0.916994
vt 0.637336 0.902587
vt 0.670470 0.869453
vt 0.947523 0.854079
vt 0.947523 0.821743
vt 0.985608 0.821743
vt 0.985608 0.854079
vt 0.702922 0.900334
vt 0.680929 0.854079
vt 0.680929 0.821743
vt 0.719014 0.821743
vt 0.719014 0.854079
vt 0.669360 0.937796
vt 0.717329 0.869453
vt 0.637336 0.949445
vt 0.718439 0.914236
vt 0.757099 0.821743
vt 0.757099 0.854079
vt 0.684877 0.951698
vt 0.750463 0.902587
vt 0.670470 0.982579
vt 0.719581 0.935038
vt 0.795184 0.821743
vt 0.795184 0.854079
vt 0.705679 0.950555
vt 0.750463 0.949446
vt 0.717329 0.982579
vt 0.833269 0.821743
vt 0.833269 0.854079
vt 0.871354 0.821743
vt 0.871354 0.854079
vt 0.909438 0.821743
vt 0.909438 0.854079
vt 0.683258 0.803335
vt 0.683258 0.775584
vt 0.632912 0.775584
vt 0.632912 0.803335
vt 0.988542 0.769811
vt 0.636929 0.722772
vt 0.636935 0.717181
vt 0.957275 0.719979
vt 0.988542 0.670148
vt 0.986668 0.792661
vt 0.986668 0.786258
vt 0.867743 0.869453
vt 0.867743 0.876987
vt 0.863558 0.876987
vt 0.863558 0.869453
s 0
usemtl material
f 1/1/1 2/2/1 3/3/1
f 4/3/2 5/4/2 6/5/2 7/1/2
f 8/5/3 1/1/3 3/3/3 9/4/3
f 10/2/4 4/3/4 7/1/4
f 5/6/5 8/7/5 9/8/5 6/9/5
f 10/2/6 7/1/6 11/10/6
f 6/11/7 9/12/7 12/13/7 13/14/7
f 3/3/8 2/2/8 14/15/8
f 7/1/9 6/5/9 13/16/9 11/10/9
f 9/4/10 3/3/10 14/15/10 12/17/10
f 10/2/11 11/10/11 15/18/11
f 13/14/12 12/13/12 16/19/12 17/20/12
f 14/15/13 2/2/13 18/21/13
f 11/10/14 13/16/14 17/22/14 15/18/14
f 12/17/15 14/15/15 18/21/15 16/23/15
f 10/2/16 15/18/16 19/24/16
f 17/20/17 16/19/17 20/25/17 21/26/17
f 18/21/18 2/2/18 22/27/18
f 15/18/19 17/22/19 21/28/19 19/24/19
f 16/23/20 18/21/20 22/27/20 20/29/20
f 10/2/21 19/24/21 23/27/21
f 21/26/22 20/25/22 24/30/22 25/31/22
f 22/27/23 2/2/23 26/24/23
f 19/24/24 21/28/24 25/29/24 23/27/24
f 20/29/25 22/27/25 26/24/25 24/28/25
f 10/2/26 23/27/26 27/21/26
f 25/31/27 24/30/27 28/32/27 29/33/27
f 26/24/28 2/2/28 30/18/28
f 23/27/29 25/29/29 29/23/29 27/21/29
f 24/28/30 26/24/30 30/18/30 28/22/30
f 10/2/31 27/21/31 31/15/31
f 29/33/32 28/32/32 32/34/32 33/35/32
f 30/18/33 2/2/33 34/10/33
f 27/21/34 29/23/34 33/17/34 31/15/34
f 28/22/35 30/18/35 34/10/35 32/16/35
f 10/2/36 31/15/36 4/3/36
f 33/35/37 32/34/37 8/7/37 5/6/37
f 34/10/38 2/2/38 1/1/38
f 31/15/39 33/17/39 5/4/39 4/3/39
f 32/16/40 34/10/40 1/1/40 8/5/40
f 35/36/41 36/37/41 37/38/41 38/39/41
f 36/40/42 39/41/42 40/42/42 37/43/42
f 38/43/43 41/42/43 42/41/43 35/40/43
f 37/43/44 40/42/44 43/44/44
f 35/36/45 42/45/45 39/46/45 36/37/45
f 38/39/46 37/38/46 43/37/46 44/36/46
f 41/45/47 44/36/47 43/37/47 40/46/47
f 38/43/48 44/44/48 41/42/48
f 41/47/12 40/48/12 39/49/12 42/50/12
o arrow_1
v -1.075000 -0.250000 -0.025000
v -1.075000 -0.200000 -0.025000
v -0.975000 -0.200000 -0.025000
v -0.975000 -0.250000 -0.025000
v -0.975000 -0.250000 0.025000
v -0.975000 -0.200000 0.025000
v -1.075000 -0.200000 0.025000
v -1.075000 -0.250000 0.025000
v -1.103219 -0.225000 0.034444
v -1.118670 -0.175000 0.081996
v -0.892554 -0.210000 -0.620972
v -0.845002 -0.210000 -0.605522
v -1.071117 -0.175000 0.097447
v -1.055666 -0.225000 0.049894
v -0.892554 -0.240000 -0.620972
v -0.845002 -0.240000 -0.605522
v -1.071117 -0.275000 0.097447
v -1.118670 -0.275000 0.081996
v -0.786943 -0.240000 -0.679250
v -0.772915 -0.240000 -0.664860
v -0.786943 -0.210000 -0.679250
v -0.772915 -0.210000 -0.664860
vn -0.0000 -0.0000 -1.0000
vn -0.0000 -0.0000 1.0000
vn -0.0000 -1.0000 -0.0000
vn -0.0000 1.0000 -0.0000
vn -0.9520 -0.0006 -0.3061
vn -0.9520 -0.0031 -0.3061
vn -0.9520 -0.0018 -0.3060
vn 0.9520 0.0018 0.3061
vn 0.9520 0.0031 0.3061
vn 0.9520 0.0006 0.3061
vn -0.2185 -0.7071 0.6725
vn 0.0146 -0.9989 -0.0450
vn 0.0146 0.9989 -0.0450
vn -0.2185 0.7071 0.6725
vn 0.9520 -0.0020 0.3060
vn 0.9520 0.0017 0.3061
vn -0.9520 0.0020 -0.3060
vn -0.9520 -0.0016 -0.3060
vn 0.7161 -0.0000 -0.6980
vn -0.4831 -0.0000 -0.8755
vn 0.6355 -0.0000 0.7721
vt 0.336122 0.927464
vt 0.336122 0.939351
vt 0.312347 0.939351
vt 0.312347 0.927464
vt 0.312347 0.915576
vt 0.312347 0.903688
vt 0.336122 0.903688
vt 0.336122 0.915576
vt 0.336122 0.951239
vt 0.312347 0.951239
vt 0.297021 0.779729
vt 0.285134 0.767841
vt 0.293455 0.943405
vt 0.277543 0.770085
vt 0.277637 0.786897
vt 0.265750 0.786963
vt 0.265655 0.770152
vt 0.266215 0.962725
vt 0.278102 0.962659
vt 0.300588 0.943405
vt 0.308909 0.767841
vt 0.283471 0.980630
vt 0.287687 0.978383
vt 0.340964 0.903688
vt 0.340964 0.910821
vt 0.336186 0.910821
vt 0.336186 0.903688
vt 0.293455 0.968845
vt 0.300588 0.968845
s 0
usemtl material
f 45/51/49 46/52/49 47/53/49 48/54/49
f 49/55/50 50/56/50 51/57/50 52/58/50
f 45/51/51 48/54/51 49/55/51 52/58/51
f 47/53/52 46/52/52 51/59/52 50/60/52
f 53/61/53 54/62/54 55/63/55
f 56/63/56 57/62/57 58/61/58
f 58/64/59 57/65/59 54/66/59 53/67/59
f 59/68/60 60/69/60 61/65/60 62/66/60
f 56/69/61 55/68/61 54/66/61 57/65/61
f 61/65/62 58/64/62 53/67/62 62/66/62
f 60/70/63 56/63/64 58/61/58 61/71/63
f 60/69/51 59/68/51 63/72/51 64/73/51
f 62/71/65 53/61/53 55/63/66 59/70/65
f 63/74/67 65/75/67 66/76/67 64/77/67
f 59/70/68 55/63/68 65/78/68 63/79/68
f 55/68/52 56/69/52 66/73/52 65/72/52
f 56/63/69 60/70/69 64/79/69 66/78/69
o arrow_20
v 0.719045 -0.150000 -0.725360
v 0.719045 -0.300000 -0.725360
v 0.617918 -0.240000 -0.798833
v 0.617918 -0.210000 -0.798833
v 0.780895 -0.107500 -0.681450
v 0.780895 -0.342500 -0.681450
v 0.742313 -0.200000 -0.671973
v 0.742313 -0.250000 -0.671973
v 0.701862 -0.200000 -0.701362
v 0.701862 -0.250000 -0.701362
v 0.682759 -0.250000 -0.675069
v 0.682759 -0.200000 -0.675069
v 0.723210 -0.250000 -0.645680
v 0.723210 -0.200000 -0.645680
v 0.600735 -0.225000 -0.774835
v 0.701852 -0.145818 -0.701286
v 0.742253 -0.118881 -0.672177
v 0.742249 -0.317923 -0.671932
v 0.701922 -0.291785 -0.701359
vn 0.5863 0.0018 -0.8101
vn 0.5863 -0.0018 -0.8101
vn 0.5878 -0.0000 -0.8090
vn 0.5862 -0.0018 -0.8101
vn 0.5789 -0.0000 -0.8154
vn 0.2385 -0.0000 0.9711
vn -0.8090 -0.0000 -0.5878
vn -0.4833 0.8623 -0.1515
vn -0.4822 0.8632 -0.1497
vn -0.5876 -0.0012 0.8092
vn -0.0000 -1.0000 -0.0000
vn -0.0000 1.0000 -0.0000
vn 0.8090 -0.0000 0.5878
vn -0.8131 -0.0000 -0.5822
vn -0.5878 -0.0000 0.8090
vn -0.5879 -0.0008 0.8089
vn -0.5412 -0.8407 0.0198
vn -0.5403 -0.8412 0.0220
vn -0.3419 0.8685 -0.3589
vn -0.3381 0.8729 -0.3518
vn -0.5051 -0.8603 -0.0682
vn -0.5073 -0.8591 -0.0679
vn -0.5439 -0.8379 -0.0449
vn -0.5424 -0.8388 -0.0467
vn 0.2394 0.0004 0.9709
vn -0.5885 0.0004 0.8085
vn 0.2326 0.0026 0.9726
vn -0.5863 0.0005 0.8101
vn -0.3122 0.8730 -0.3746
vn -0.3163 0.8750 -0.3666
vt 0.430354 0.769222
vt 0.430354 0.687639
vt 0.498340 0.720272
vt 0.498340 0.736588
vt 0.389099 0.792337
vt 0.389099 0.664523
vt 0.506822 0.573196
vt 0.506822 0.692044
vt 0.485743 0.648811
vt 0.485741 0.622285
vt 0.480838 0.806271
vt 0.480838 0.779077
vt 0.498514 0.779077
vt 0.498514 0.806271
vt 0.504134 0.827312
vt 0.522945 0.831712
vt 0.522945 0.741238
vt 0.504134 0.741238
vt 0.459273 0.671745
vt 0.392876 0.635621
vt 0.459222 0.648834
vt 0.482229 0.757901
vt 0.498282 0.749742
vt 0.498282 0.766059
vt 0.459205 0.622300
vt 0.459216 0.600125
vt 0.504134 0.688179
vt 0.522945 0.707255
vt 0.485702 0.586237
vt 0.485728 0.683541
s 0
usemtl material
f 67/80/70 68/81/71 69/82/72 70/83/72
f 68/81/73 67/80/70 71/84/74 72/85/74
f 72/86/75 71/87/75 73/88/75 74/89/75
f 75/90/76 76/91/76 77/92/76 78/93/76
f 70/94/77 81/95/77 82/96/77 67/97/78
f 82/98/79 81/99/79 75/100/79
f 76/92/80 74/93/80 79/90/80 77/91/80
f 73/90/81 75/91/81 78/92/81 80/93/81
f 74/92/82 73/93/82 80/90/82 79/91/82
f 81/101/83 70/102/83 69/103/83
f 76/104/84 75/100/84 81/99/84
f 81/99/85 85/105/85 76/104/85
f 85/96/86 81/95/86 69/94/86 68/97/87
f 71/106/88 67/97/89 83/107/88
f 68/97/90 84/107/91 85/96/91
f 72/106/92 84/107/92 68/97/93
f 74/89/94 84/108/94 72/86/94
f 76/104/95 85/105/95 84/108/95 74/89/95
f 73/88/96 71/87/96 83/109/96
f 73/88/97 83/109/97 82/98/97 75/100/97
f 82/96/98 83/107/98 67/97/99
o arrow_21
v 0.719301 -0.350000 -0.725270
v 0.702118 -0.250000 -0.701272
v 0.702118 -0.200000 -0.701272
v 0.719301 -0.095000 -0.725270
v 0.683072 -0.249840 -0.674982
v 0.683204 -0.199550 -0.675000
v 0.742569 -0.250000 -0.671883
v 0.760573 -0.350000 -0.695795
v 0.760573 -0.095000 -0.695795
v 0.742569 -0.200000 -0.671883
v 0.723559 -0.250183 -0.645578
v 0.723543 -0.199827 -0.645603
v 0.702118 -0.095000 -0.701272
v 0.722255 0.050000 -0.686457
v 0.742569 -0.095000 -0.671883
v 0.802992 -0.100000 -0.627456
v 0.742569 -0.350000 -0.671883
v 0.702118 -0.350000 -0.701272
v 0.641340 -0.100000 -0.745215
v 0.658523 -0.100000 -0.769213
v 0.739848 0.050000 -0.710412
v 0.820995 -0.100000 -0.651369
vn -0.1639 -0.0000 -0.9865
vn -0.8139 0.0003 -0.5809
vn -0.8114 0.0003 -0.5845
vn 0.2992 0.0001 -0.9542
vn -0.8140 0.0003 -0.5809
vn -0.8107 0.0010 -0.5855
vn 0.7989 -0.0000 0.6015
vn 0.9884 -0.0000 -0.1520
vn 0.8971 0.0007 -0.4419
vn -0.0026 -1.0000 -0.0023
vn 0.0079 0.9999 -0.0061
vn 0.8103 0.0003 0.5861
vn -0.8131 -0.0000 -0.5822
vn 0.2992 0.0002 -0.9542
vn -0.5835 -0.0037 0.8121
vn -0.5874 -0.0003 0.8093
vn -0.5925 -0.0020 0.8056
vn -0.5878 -0.0000 0.8090
vn -0.5875 -0.0003 0.8093
vn -0.5900 0.0021 0.8074
vn 0.2993 0.0002 -0.9542
vn 0.8970 0.0007 -0.4420
vn 0.9884 0.0003 -0.1520
vn -0.0000 -1.0000 -0.0000
vn -0.1639 -0.0001 -0.9865
vn 0.0541 -0.9978 0.0387
vn 0.5838 0.0005 -0.8119
vn -0.6732 0.5554 -0.4882
vn -0.5858 -0.0014 0.8104
vn 0.2993 0.0002 -0.9541
vn 0.5859 -0.0000 -0.8104
vn 0.6673 0.5554 0.4962
vn -0.0531 -0.9978 -0.0400
vn 0.5926 0.0035 -0.8055
vt 0.508155 0.830585
vt 0.522978 0.780247
vt 0.522962 0.755082
vt 0.508073 0.702246
vt 0.405412 0.827769
vt 0.405412 0.852931
vt 0.389089 0.852931
vt 0.389089 0.827769
vt 0.523154 0.780232
vt 0.508145 0.830578
vt 0.508003 0.702239
vt 0.523126 0.755068
vt 0.405412 0.878092
vt 0.389089 0.878092
vt 0.405412 0.903304
vt 0.405412 0.928444
vt 0.389089 0.928444
vt 0.389089 0.903304
vt 0.522928 0.702237
vt 0.587408 0.580613
vt 0.599786 0.653604
vt 0.637690 0.656186
vt 0.523067 0.702222
vt 0.574444 0.706643
vt 0.599786 0.706717
vt 0.574444 0.653560
vt 0.574444 0.781605
vt 0.599786 0.781619
vt 0.445947 0.851986
vt 0.435940 0.851998
vt 0.436081 0.846094
vt 0.445947 0.846162
vt 0.523209 0.830561
vt 0.523009 0.830576
vt 0.423412 0.805531
vt 0.423412 0.780369
vt 0.473735 0.780369
vt 0.473735 0.805531
vt 0.522730 0.664407
vt 0.507876 0.664416
vt 0.523009 0.573675
vt 0.508051 0.573585
vt 0.536864 0.656011
vt 0.522597 0.664395
vt 0.507532 0.664413
vt 0.508251 0.573585
vt 0.523209 0.573666
s 0
usemtl material
f 86/110/100 87/111/101 88/112/102 89/113/103
f 88/114/102 87/115/104 90/116/105 91/117/105
f 92/118/106 93/119/107 94/120/108 95/121/106
f 87/115/109 92/122/109 96/123/109 90/116/109
f 95/124/110 88/125/110 91/126/110 97/127/110
f 92/122/111 95/124/111 97/127/111 96/123/111
f 98/128/112 89/113/113 88/112/102
f 99/129/114 100/130/115 101/131/116
f 100/132/106 95/121/106 94/120/108
f 88/133/117 95/134/117 100/130/118 98/135/119
f 86/136/100 89/135/120 94/130/121 93/137/122
f 86/138/123 93/139/123 102/140/123 103/141/123
f 102/142/106 93/119/107 92/118/106
f 87/111/104 86/110/124 103/143/112
f 92/144/117 87/145/117 103/146/117 102/147/117
f 89/113/125 98/128/125 104/148/125 105/149/125
f 98/135/119 100/130/115 99/129/114
f 94/130/121 89/135/120 106/129/126
f 105/149/127 104/148/127 99/150/127 106/151/127
f 98/135/119 99/129/114 104/152/128
f 106/129/126 89/135/129 105/152/130
f 101/153/131 107/154/131 106/155/131 99/156/131
f 100/132/132 94/120/132 107/154/132 101/153/132
f 94/130/133 106/129/133 107/131/133
o arrow_22
v 0.702118 -0.200000 -0.701272
v 0.719301 -0.100000 -0.725270
v 0.719301 -0.355000 -0.725270
v 0.702118 -0.250000 -0.701272
v 0.683015 -0.250000 -0.674979
v 0.683015 -0.200000 -0.674979
v 0.742569 -0.250000 -0.671883
v 0.760573 -0.355000 -0.695795
v 0.760573 -0.100000 -0.695795
v 0.742569 -0.200000 -0.671883
v 0.723466 -0.250000 -0.645590
v 0.723466 -0.200000 -0.645590
v 0.702118 -0.355000 -0.701272
v 0.702118 -0.100000 -0.701272
v 0.742569 -0.100000 -0.671883
v 0.742569 -0.355000 -0.671883
v 0.802992 -0.350000 -0.627456
v 0.820995 -0.350000 -0.651369
v 0.658523 -0.350000 -0.769213
v 0.641340 -0.350000 -0.745215
v 0.722255 -0.500000 -0.686457
v 0.739848 -0.500000 -0.710412
vn -0.8117 -0.0031 -0.5840
vn -0.1450 0.1034 -0.9840
vn -0.4817 0.0166 -0.8762
vn -0.8135 -0.0000 -0.5816
vn -0.8090 -0.0000 -0.5878
vn 0.7989 -0.0000 0.6015
vn 0.8967 -0.0004 -0.4426
vn 0.9884 0.0001 -0.1520
vn -0.0000 -1.0000 -0.0000
vn -0.0000 1.0000 -0.0000
vn 0.8090 -0.0000 0.5878
vn -0.8120 0.0055 -0.5836
vn -0.4816 0.0166 -0.8762
vn 0.9884 -0.0000 -0.1521
vn -0.5878 -0.0000 0.8090
vn 0.8967 -0.0003 -0.4426
vn 0.9884 -0.0000 -0.1520
vn -0.0531 0.9978 -0.0400
vn -0.8131 -0.0000 -0.5822
vn -0.5901 -0.0036 0.8074
vn -0.5875 0.0003 0.8093
vn 0.0541 0.9978 0.0387
vn -0.5874 0.0003 0.8093
vn -0.5827 0.0040 0.8127
vn 0.5838 -0.0005 -0.8119
vn -0.6732 -0.5554 -0.4882
vn 0.5859 -0.0000 -0.8104
vn -0.5901 -0.0036 0.8073
vn -0.5858 0.0014 0.8104
vn 0.6673 -0.5554 0.4962
vn 0.5926 -0.0035 -0.8055
vn -0.5925 0.0020 0.8056
vt 0.522970 0.780200
vt 0.508151 0.830527
vt 0.508070 0.702217
vt 0.522954 0.755041
vt 0.389089 0.928444
vt 0.389089 0.903304
vt 0.405412 0.903304
vt 0.405412 0.928444
vt 0.522930 0.755092
vt 0.507810 0.702275
vt 0.507952 0.830585
vt 0.522958 0.780251
vt 0.389089 0.878092
vt 0.405412 0.878092
vt 0.389089 0.852931
vt 0.389089 0.827769
vt 0.405412 0.827769
vt 0.405412 0.852931
vt 0.522921 0.702208
vt 0.764591 0.846517
vt 0.774594 0.846530
vt 0.774594 0.852351
vt 0.764732 0.852419
vt 0.523013 0.830569
vt 0.473735 0.780369
vt 0.473735 0.805531
vt 0.423412 0.805531
vt 0.423412 0.780369
vt 0.599786 0.653604
vt 0.574444 0.653560
vt 0.574444 0.781605
vt 0.599786 0.781619
vt 0.522871 0.702259
vt 0.522401 0.664441
vt 0.507339 0.664458
vt 0.523002 0.830518
vt 0.599786 0.706717
vt 0.574444 0.706643
vt 0.507872 0.664396
vt 0.522723 0.664386
vt 0.587408 0.580613
vt 0.508047 0.573585
vt 0.523002 0.573675
vt 0.536864 0.656011
vt 0.508058 0.573650
vt 0.637690 0.656186
s 0
usemtl material
f 108/157/134 109/158/135 110/159/136 111/160/137
f 108/161/134 111/162/137 112/163/138 113/164/138
f 114/165/139 115/166/140 116/167/141 117/168/139
f 111/162/142 114/169/142 118/170/142 112/163/142
f 117/171/143 108/172/143 113/173/143 119/174/143
f 114/169/144 117/171/144 119/174/144 118/170/144
f 120/175/145 111/160/137 110/159/146
f 116/176/143 109/177/143 121/178/143 122/179/143
f 122/180/139 117/168/139 116/167/147
f 108/181/148 117/182/148 122/183/148 121/184/148
f 115/185/149 110/186/146 109/187/135 116/188/150
f 115/166/151 123/189/151 124/190/151 125/191/151
f 123/189/139 115/166/140 114/165/139
f 121/192/152 109/158/135 108/157/134
f 114/193/148 111/194/148 120/186/153 123/185/154
f 120/175/155 110/159/155 126/195/155 127/196/155
f 123/185/156 120/186/153 128/197/157
f 110/186/146 115/185/140 129/197/158
f 127/196/159 126/195/159 129/198/159 128/199/159
f 110/186/146 129/197/158 126/200/160
f 128/197/157 120/186/161 127/200/162
f 125/191/163 124/190/163 128/199/163 129/201/163
f 129/197/164 115/185/164 125/202/164
f 123/185/156 128/197/157 124/202/165
o arrow_3
v 0.000000 0.207544 -0.356825
v 0.000000 0.172544 -0.320590
v 0.160295 0.172544 -0.277639
v 0.178413 0.207544 -0.309020
v 0.277640 0.172544 -0.160295
v 0.309020 0.207544 -0.178413
v 0.320590 0.172544 -0.000000
v 0.356825 0.207544 -0.000000
v 0.277639 0.172544 0.160295
v 0.309020 0.207544 0.178413
v 0.160295 0.172544 0.277640
v 0.178413 0.207544 0.309020
v 0.000000 0.172544 0.320590
v 0.000000 0.207544 0.356825
v -0.160295 0.172544 0.277640
v -0.178412 0.207544 0.309020
v -0.277639 0.172544 0.160295
v -0.309020 0.207544 0.178413
v -0.320590 0.172544 -0.000000
v -0.356825 0.207544 -0.000000
v -0.277640 0.172544 -0.160295
v -0.309020 0.207544 -0.178412
v -0.160295 0.172544 -0.277639
v -0.178413 0.207544 -0.309020
v 0.206883 0.207544 -0.358331
v 0.225000 0.172544 -0.389711
v 0.000000 0.172544 -0.450000
v 0.000000 0.207544 -0.413765
v 0.358331 0.207544 -0.206883
v 0.389711 0.172544 -0.225000
v 0.413765 0.207544 -0.000000
v 0.450000 0.172544 -0.000000
v 0.358331 0.207544 0.206883
v 0.389711 0.172544 0.225000
v 0.206883 0.207544 0.358331
v 0.225000 0.172544 0.389711
v 0.000000 0.207544 0.413765
v 0.000000 0.172544 0.450000
v -0.206883 0.207544 0.358331
v -0.225000 0.172544 0.389711
v -0.358331 0.207544 0.206883
v -0.389711 0.172544 0.225000
v -0.413765 0.207544 -0.000000
v -0.450000 0.172544 -0.000000
v -0.358331 0.207544 -0.206882
v -0.389712 0.172544 -0.225000
v -0.206883 0.207544 -0.358331
v -0.225000 0.172544 -0.389711
v 0.000000 0.117544 -0.320590
v 0.000000 0.082544 -0.356825
v 0.178413 0.082544 -0.309020
v 0.160295 0.117544 -0.277639
v 0.309020 0.082544 -0.178413
v 0.277640 0.117544 -0.160295
v 0.356825 0.082544 -0.000000
v 0.320590 0.117544 -0.000000
v 0.309020 0.082544 0.178413
v 0.277639 0.117544 0.160295
v 0.178413 0.082544 0.309020
v 0.160295 0.117544 0.277640
v 0.000000 0.082544 0.356825
v 0.000000 0.117544 0.320590
v -0.178412 0.082544 0.309020
v -0.160295 0.117544 0.277640
v -0.309020 0.082544 0.178413
v -0.277639 0.117544 0.160295
v -0.356825 0.082544 -0.000000
v -0.320590 0.117544 -0.000000
v -0.309020 0.082544 -0.178412
v -0.277640 0.117544 -0.160295
v -0.178413 0.082544 -0.309020
v -0.160295 0.117544 -0.277639
v 0.000000 0.082544 -0.413765
v 0.000000 0.117544 -0.450000
v 0.225000 0.117544 -0.389711
v 0.206883 0.082544 -0.358331
v 0.389711 0.117544 -0.225000
v 0.358331 0.082544 -0.206883
v 0.450000 0.117544 -0.000000
v 0.413765 0.082544 -0.000000
v 0.389711 0.117544 0.225000
v 0.358331 0.082544 0.206883
v 0.225000 0.117544 0.389711
v 0.206883 0.082544 0.358331
v 0.000000 0.117544 0.450000
v 0.000000 0.082544 0.413765
v -0.225000 0.117544 0.389711
v -0.206883 0.082544 0.358331
v -0.389711 0.117544 0.225000
v -0.358331 0.082544 0.206883
v -0.450000 0.117544 -0.000000
v -0.413765 0.082544 -0.000000
v -0.389712 0.117544 -0.225000
v -0.358331 0.082544 -0.206882
v -0.225000 0.117544 -0.389711
v -0.206883 0.082544 -0.358331
vn 0.9659 -0.0000 -0.2588
vn 0.7071 -0.0000 -0.7071
vn 0.7071 -0.0000 0.7071
vn 0.2588 -0.0000 0.9659
vn -0.2588 -0.0000 0.9659
vn -0.7071 -0.0000 0.7071
vn -0.9659 -0.0000 0.2588
vn -0.9659 -0.0000 -0.2588
vn -0.7071 -0.0000 -0.7071
vn -0.0000 -1.0000 -0.0000
vn 0.9659 -0.0000 0.2588
vn -0.0000 1.0000 -0.0000
vn -0.2588 -0.0000 -0.9659
vn 0.2588 -0.0000 -0.9659
vn 0.1830 0.7071 -0.6830
vn 0.5000 0.7071 -0.5000
vn 0.6830 0.7071 -0.1830
vn 0.6830 0.7071 0.1830
vn 0.5000 0.7071 0.5000
vn 0.1830 0.7071 0.6830
vn -0.1830 0.7071 0.6830
vn -0.5000 0.7071 0.5000
vn -0.6830 0.7071 0.1830
vn -0.6830 0.7071 -0.1830
vn -0.5000 0.7071 -0.5000
vn -0.1830 0.7071 -0.6830
vn 0.1830 -0.7071 -0.6830
vn 0.5000 -0.7071 -0.5000
vn 0.6830 -0.7071 -0.1830
vn 0.6830 -0.7071 0.1830
vn 0.5000 -0.7071 0.5000
vn 0.1830 -0.7071 0.6830
vn -0.1830 -0.7071 0.6830
vn -0.5000 -0.7071 0.5000
vn -0.6830 -0.7071 0.1830
vn -0.6830 -0.7071 -0.1830
vn -0.5000 -0.7071 -0.5000
vn -0.1830 -0.7071 -0.6830
vt 0.753543 0.406476
vt 0.767951 0.402610
vt 0.796949 0.453016
vt 0.786386 0.463537
vt 0.753398 0.340608
vt 0.767821 0.344400
vt 0.843259 0.496547
vt 0.847131 0.482167
vt 0.905046 0.482154
vt 0.908959 0.496514
vt 0.954929 0.452762
vt 0.965551 0.463193
vt 0.983413 0.402123
vt 0.997838 0.405917
vt 0.983398 0.343806
vt 0.997838 0.339983
vt 0.954587 0.293252
vt 0.965161 0.282730
vt 0.904399 0.264257
vt 0.908221 0.249871
vt 0.846491 0.264453
vt 0.842558 0.250099
vt 0.806674 0.303763
vt 0.781613 0.347968
vt 0.796502 0.293844
vt 0.854341 0.455583
vt 0.897818 0.455662
vt 0.901255 0.468522
vt 0.850774 0.468462
vt 0.956574 0.350831
vt 0.956556 0.395086
vt 0.943848 0.392076
vt 0.944029 0.354305
vt 0.935226 0.433511
vt 0.894197 0.443468
vt 0.925796 0.424813
vt 0.816565 0.433564
vt 0.825556 0.424328
vt 0.857496 0.443148
vt 0.806997 0.442959
vt 0.794699 0.395479
vt 0.807143 0.391930
vt 0.781696 0.398881
vt 0.794604 0.351450
vt 0.807205 0.354498
vt 0.850308 0.278097
vt 0.816185 0.313197
vt 0.825564 0.322005
vt 0.900807 0.277951
vt 0.853784 0.290981
vt 0.857456 0.303231
vt 0.944545 0.303274
vt 0.897297 0.290834
vt 0.894229 0.303253
vt 0.969623 0.347485
vt 0.934999 0.312627
vt 0.926041 0.321771
vt 0.785890 0.283390
vt 0.944741 0.442893
vt 0.969596 0.398567
s 0
usemtl material
f 206/203/166 159/204/166 161/205/166 208/206/166
f 204/207/167 155/208/167 159/204/167 206/203/167
f 210/209/168 163/210/168 165/211/168 212/212/168
f 212/212/169 165/211/169 167/213/169 214/214/169
f 214/214/170 167/213/170 169/215/170 216/216/170
f 216/216/171 169/215/171 171/217/171 218/218/171
f 218/218/172 171/217/172 173/219/172 220/220/172
f 220/220/173 173/219/173 175/221/173 222/222/173
f 222/222/174 175/221/174 177/223/174 224/224/174
f 192/225/175 190/226/175 215/208/175 217/227/175
f 208/206/176 161/205/176 163/210/176 210/209/176
f 139/228/177 141/229/177 164/230/177 162/231/177
f 201/232/169 178/233/169 131/234/169 152/235/169
f 181/236/171 183/229/171 134/237/171 132/238/171
f 184/231/175 182/230/175 207/211/175 209/210/175
f 185/228/173 187/239/173 138/240/173 136/241/173
f 183/229/172 185/228/172 136/241/172 134/237/172
f 137/239/177 139/228/177 162/231/177 160/242/177
f 187/239/174 189/243/174 140/244/174 138/240/174
f 186/242/175 184/231/175 209/210/175 211/205/175
f 190/226/175 188/245/175 213/204/175 215/208/175
f 188/245/175 186/242/175 211/205/175 213/204/175
f 189/243/178 191/246/178 142/247/178 140/244/178
f 194/248/175 192/225/175 217/227/175 219/223/175
f 191/246/179 193/249/179 144/250/179 142/247/179
f 196/251/175 194/248/175 219/223/175 221/221/175
f 193/249/167 195/252/167 146/253/167 144/250/167
f 198/254/175 196/251/175 221/221/175 223/219/175
f 195/252/166 197/255/166 148/256/166 146/253/166
f 200/257/175 198/254/175 223/219/175 225/217/175
f 197/255/176 199/258/176 150/259/176 148/256/176
f 203/260/179 156/227/179 155/208/179 204/207/179
f 199/258/168 201/232/168 152/235/168 150/259/168
f 224/224/178 177/223/178 156/227/178 203/260/178
f 180/261/175 179/262/175 202/215/175 205/213/175
f 182/230/175 180/261/175 205/213/175 207/211/175
f 141/229/177 143/236/177 166/261/177 164/230/177
f 143/236/177 145/233/177 168/262/177 166/261/177
f 145/233/177 147/232/177 170/257/177 168/262/177
f 147/232/177 149/258/177 172/254/177 170/257/177
f 149/258/177 151/255/177 174/251/177 172/254/177
f 151/255/177 153/252/177 176/248/177 174/251/177
f 153/252/177 130/249/177 157/225/177 176/248/177
f 130/249/177 133/246/177 154/226/177 157/225/177
f 133/246/177 135/243/177 158/245/177 154/226/177
f 135/243/177 137/239/177 160/242/177 158/245/177
f 155/208/180 156/227/180 157/225/180 154/226/180
f 159/204/181 155/208/181 154/226/181 158/245/181
f 161/205/182 159/204/182 158/245/182 160/242/182
f 163/210/183 161/205/183 160/242/183 162/231/183
f 165/211/184 163/210/184 162/231/184 164/230/184
f 167/213/185 165/211/185 164/230/185 166/261/185
f 169/215/186 167/213/186 166/261/186 168/262/186
f 171/217/187 169/215/187 168/262/187 170/257/187
f 173/219/188 171/217/188 170/257/188 172/254/188
f 175/221/189 173/219/189 172/254/189 174/251/189
f 177/223/190 175/221/190 174/251/190 176/248/190
f 156/227/191 177/223/191 176/248/191 157/225/191
f 133/246/186 130/249/186 131/250/186 132/247/186
f 135/243/187 133/246/187 132/247/187 134/244/187
f 137/239/188 135/243/188 134/244/188 136/240/188
f 139/228/189 137/239/189 136/240/189 138/241/189
f 141/229/190 139/228/190 138/241/190 140/237/190
f 143/236/191 141/229/191 140/237/191 142/238/191
f 145/233/180 143/236/180 142/238/180 144/234/180
f 147/232/181 145/233/181 144/234/181 146/235/181
f 149/258/182 147/232/182 146/235/182 148/259/182
f 151/255/183 149/258/183 148/259/183 150/256/183
f 153/252/184 151/255/184 150/256/184 152/253/184
f 130/249/185 153/252/185 152/253/185 131/250/185
f 179/262/175 200/257/175 225/217/175 202/215/175
f 203/216/192 204/214/192 205/213/192 202/215/192
f 204/214/193 206/212/193 207/211/193 205/213/193
f 206/212/194 208/209/194 209/210/194 207/211/194
f 208/209/195 210/206/195 211/205/195 209/210/195
f 210/206/196 212/203/196 213/204/196 211/205/196
f 212/203/197 214/207/197 215/208/197 213/204/197
f 214/207/198 216/260/198 217/227/198 215/208/198
f 216/260/199 218/224/199 219/223/199 217/227/199
f 218/224/200 220/222/200 221/221/200 219/223/200
f 220/222/201 222/220/201 223/219/201 221/221/201
f 222/220/202 224/218/202 225/217/202 223/219/202
f 224/218/203 203/216/203 202/215/203 225/217/203
f 179/262/198 180/261/198 181/236/198 178/233/198
f 180/261/199 182/230/199 183/229/199 181/236/199
f 182/230/200 184/231/200 185/228/200 183/229/200
f 184/231/201 186/242/201 187/239/201 185/228/201
f 186/242/202 188/245/202 189/243/202 187/239/202
f 188/245/203 190/226/203 191/246/203 189/243/203
f 190/226/192 192/225/192 193/249/192 191/246/192
f 192/225/193 194/248/193 195/252/193 193/249/193
f 194/248/194 196/251/194 197/255/194 195/252/194
f 196/251/195 198/254/195 199/258/195 197/255/195
f 198/254/196 200/257/196 201/232/196 199/258/196
f 200/257/197 179/262/197 178/233/197 201/232/197
f 178/233/170 181/236/170 132/238/170 131/234/170
o body
v -0.821696 -0.000000 -0.607129
v -0.821696 0.025000 -0.607129
v -0.700343 0.025000 -0.695297
v -0.700343 -0.000000 -0.695297
v -0.685648 0.025000 -0.675071
v -0.685648 -0.000000 -0.675071
v -0.807001 -0.000000 -0.586904
v -0.807001 0.025000 -0.586904
v -0.821696 -0.475000 -0.607129
v -0.821696 -0.450000 -0.607129
v -0.700343 -0.450000 -0.695297
v -0.700343 -0.475000 -0.695297
v -0.685648 -0.450000 -0.675071
v -0.685648 -0.475000 -0.675071
v -0.807001 -0.475000 -0.586904
v -0.807001 -0.450000 -0.586904
v -0.821696 -0.237500 -0.607129
v -0.821696 -0.212500 -0.607129
v -0.700343 -0.212500 -0.695297
v -0.700343 -0.237500 -0.695297
v -0.685648 -0.212500 -0.675071
v -0.685648 -0.237500 -0.675071
v -0.807001 -0.237500 -0.586904
v -0.807001 -0.212500 -0.586904
v -0.821696 -0.115000 -0.607129
v -0.821696 -0.090000 -0.607129
v -0.781245 -0.090000 -0.636518
v -0.781245 -0.115000 -0.636518
v -0.766550 -0.090000 -0.616293
v -0.766550 -0.115000 -0.616293
v -0.807001 -0.115000 -0.586904
v -0.807001 -0.090000 -0.586904
v -0.821696 -0.362500 -0.607129
v -0.821696 -0.337500 -0.607129
v -0.781245 -0.337500 -0.636518
v -0.781245 -0.362500 -0.636518
v -0.766550 -0.337500 -0.616293
v -0.766550 -0.362500 -0.616293
v -0.807001 -0.362500 -0.586904
v -0.807001 -0.337500 -0.586904
v -1.000000 -0.550000 0.000000
v -1.000000 0.100000 -0.000000
v -0.809017 0.100000 -0.587785
v -0.809017 -0.550000 -0.587785
v -0.309017 0.100000 -0.951057
v -0.309017 -0.550000 -0.951057
v 0.309017 0.100000 -0.951056
v 0.309017 -0.550000 -0.951056
v 0.809017 0.100000 -0.587785
v 0.809017 -0.550000 -0.587785
v 1.000000 0.100000 -0.000000
v 1.000000 -0.550000 0.000000
v 0.809017 0.100000 0.587785
v 0.809017 -0.550000 0.587785
v 0.309017 0.100000 0.951056
v 0.309017 -0.550000 0.951056
v -0.309017 0.100000 0.951056
v -0.309017 -0.550000 0.951056
v 0.681419 0.100000 0.495080
v 0.842281 0.100000 -0.000000
v 0.823329 0.000000 0.000000
v 0.666087 0.000000 0.483941
v -0.809017 0.100000 0.587785
v -0.809017 -0.550000 0.587785
v 0.000000 -0.550000 0.000000
v -0.842281 0.100000 -0.000000
v -0.681419 0.100000 -0.495080
v -0.260279 0.100000 -0.801057
v 0.260279 0.100000 -0.801057
v 0.681419 0.100000 -0.495080
v 0.260279 0.100000 0.801057
v -0.260279 0.100000 0.801057
v -0.681420 0.100000 0.495080
v -0.254423 -0.000000 -0.783033
v 0.254423 -0.000000 -0.783033
v -0.666088 0.000000 0.483941
v -0.823329 0.000000 0.000000
v 0.254423 0.000000 0.783033
v 0.666088 -0.000000 -0.483941
v -0.666087 -0.000000 -0.483941
v -0.254423 0.000000 0.783033
v 0.018856 0.000000 0.058033
v 0.049366 0.000000 0.035866
v 0.000000 0.100000 -0.000000
v -0.061019 0.000000 0.000000
v -0.049366 -0.000000 -0.035866
v -0.018856 -0.000000 -0.058033
v 0.018856 -0.000000 -0.058033
v 0.049366 -0.000000 -0.035866
v 0.061019 0.000000 0.000000
v -0.018856 0.000000 0.058033
v -0.049366 0.000000 0.035866
vn -0.5878 -0.0000 -0.8090
vn 0.8090 -0.0000 -0.5878
vn -0.8090 -0.0000 0.5878
vn -0.0000 -1.0000 -0.0000
vn -0.0000 1.0000 -0.0000
vn -0.9511 -0.0000 -0.3090
vn -0.0000 -0.0000 -1.0000
vn 0.5878 -0.0000 -0.8090
vn 0.9511 -0.0000 -0.3090
vn 0.9511 -0.0000 0.3090
vn 0.5878 -0.0000 0.8090
vn -0.0000 -0.0000 1.0000
vn -0.9360 0.1774 -0.3041
vn -0.5878 -0.0000 0.8090
vn -0.9511 -0.0000 0.3090
vn -0.0000 0.1774 0.9841
vn 0.9360 0.1774 -0.3041
vn -0.5785 0.1774 -0.7962
vn -0.5785 0.1774 0.7962
vn 0.9360 0.1774 0.3041
vn -0.0000 0.1774 -0.9841
vn -0.9360 0.1774 0.3041
vn 0.5785 0.1774 0.7962
vn 0.5785 0.1774 -0.7962
vn 0.5084 0.5019 0.6997
vn 0.5084 0.5019 -0.6997
vn -0.8226 0.5019 -0.2673
vn -0.0000 0.5019 0.8649
vn 0.8226 0.5019 -0.2673
vn -0.5084 0.5019 -0.6997
vn -0.5084 0.5019 0.6997
vn 0.8226 0.5019 0.2673
vn -0.0000 0.5019 -0.8649
vn -0.8226 0.5019 0.2673
vt 0.010636 0.958160
vt 0.010636 0.947751
vt 0.073067 0.947751
vt 0.073067 0.958160
vt 0.083476 0.947751
vt 0.083476 0.958160
vt 0.000227 0.958160
vt 0.000227 0.947751
vt 0.073067 0.968574
vt 0.010636 0.968565
vt 0.073067 0.937346
vt 0.010636 0.937338
vt 0.073067 0.916501
vt 0.073067 0.926910
vt 0.010636 0.926910
vt 0.010636 0.916501
vt 0.000227 0.926910
vt 0.000227 0.916501
vt 0.083476 0.916501
vt 0.083476 0.926910
vt 0.010636 0.906088
vt 0.073067 0.906096
vt 0.010636 0.937315
vt 0.073067 0.937324
vt 0.073067 0.979001
vt 0.073067 0.989410
vt 0.010636 0.989410
vt 0.010636 0.979001
vt 0.000227 0.989410
vt 0.000227 0.979001
vt 0.083476 0.979001
vt 0.083476 0.989410
vt 0.010636 0.968588
vt 0.073067 0.968596
vt 0.010636 0.999815
vt 0.073067 0.999824
vt 0.031485 0.885251
vt 0.031485 0.895660
vt 0.010636 0.895660
vt 0.010636 0.885251
vt 0.000227 0.895660
vt 0.000227 0.885251
vt 0.041894 0.885251
vt 0.041894 0.895660
vt 0.010636 0.874838
vt 0.031485 0.874838
vt 0.010636 0.906065
vt 0.031485 0.906065
vt 0.072985 0.885251
vt 0.072985 0.895660
vt 0.052136 0.895660
vt 0.052136 0.885251
vt 0.041727 0.895660
vt 0.041727 0.885251
vt 0.083394 0.885251
vt 0.083394 0.895660
vt 0.052136 0.874838
vt 0.072985 0.874838
vt 0.052136 0.906065
vt 0.072985 0.906065
vt 0.248781 0.898712
vt 0.196205 0.898712
vt 0.196205 0.848720
vt 0.248781 0.848720
vt 0.196205 0.798730
vt 0.248781 0.798730
vt 0.196205 0.748740
vt 0.248781 0.748740
vt 0.196205 0.698750
vt 0.248781 0.698750
vt 0.196205 0.648760
vt 0.248781 0.648760
vt 0.196205 0.598769
vt 0.248781 0.598769
vt 0.196205 0.548779
vt 0.248781 0.548779
vt 0.196205 0.498789
vt 0.248781 0.498789
vt 0.030644 0.611054
vt 0.030214 0.564881
vt 0.038123 0.567295
vt 0.039906 0.607715
vt 0.248781 0.998691
vt 0.196205 0.998691
vt 0.196205 0.948702
vt 0.248781 0.948702
vt 0.141799 0.819106
vt 0.094256 0.753667
vt 0.171183 0.778663
vt 0.170208 0.607114
vt 0.169988 0.562087
vt 0.182618 0.557910
vt 0.182618 0.611073
vt 0.141841 0.525717
vt 0.149563 0.514975
vt 0.099317 0.513192
vt 0.099347 0.500049
vt 0.056154 0.527160
vt 0.048345 0.516329
vt 0.017329 0.560657
vt 0.017391 0.615811
vt 0.059702 0.647827
vt 0.052507 0.658738
vt 0.103643 0.659496
vt 0.104058 0.672684
vt 0.145747 0.643639
vt 0.153611 0.654002
vt 0.136985 0.533095
vt 0.099481 0.521237
vt 0.140193 0.636957
vt 0.162550 0.604865
vt 0.064498 0.640143
vt 0.061947 0.534889
vt 0.160899 0.565299
vt 0.102957 0.650699
vt 0.171183 0.728672
vt 0.141799 0.688229
vt 0.094256 0.672782
vt 0.046712 0.688229
vt 0.017329 0.728672
vt 0.017329 0.778662
vt 0.046712 0.819106
vt 0.094256 0.834553
vt 0.097778 0.590510
vt 0.095795 0.587980
vt 0.100696 0.586211
vt 0.112919 0.589752
vt 0.112659 0.581901
vt 0.154773 0.567390
vt 0.156257 0.602953
vt 0.107855 0.575720
vt 0.133278 0.538443
vt 0.100339 0.573543
vt 0.099568 0.527785
vt 0.092943 0.576164
vt 0.065830 0.540056
vt 0.088441 0.582634
vt 0.044416 0.569184
vt 0.088694 0.590547
vt 0.046019 0.605515
vt 0.093559 0.596755
vt 0.068123 0.634663
vt 0.101127 0.598885
vt 0.102692 0.644151
vt 0.108461 0.596179
vt 0.136161 0.631799
vt 0.097527 0.582118
vt 0.100541 0.581050
vt 0.105562 0.584456
vt 0.105668 0.587656
vt 0.100862 0.591378
vt 0.095692 0.584755
vt 0.103604 0.581937
vt 0.103851 0.590275
s 0
usemtl material
f 226/263/204 227/264/204 228/265/204 229/266/204
f 229/266/205 228/265/205 230/267/205 231/268/205
f 232/269/206 233/270/206 227/264/206 226/263/206
f 229/266/207 231/271/207 232/272/207 226/263/207
f 230/273/208 228/265/208 227/264/208 233/274/208
f 234/275/204 235/276/204 236/277/204 237/278/204
f 237/278/205 236/277/205 238/279/205 239/280/205
f 240/281/206 241/282/206 235/276/206 234/275/206
f 237/278/207 239/283/207 240/284/207 234/275/207
f 238/285/208 236/277/208 235/276/208 241/286/208
f 242/287/204 243/288/204 244/289/204 245/290/204
f 245/290/205 244/289/205 246/291/205 247/292/205
f 248/293/206 249/294/206 243/288/206 242/287/206
f 245/290/207 247/295/207 248/296/207 242/287/207
f 246/297/208 244/289/208 243/288/208 249/298/208
f 250/299/204 251/300/204 252/301/204 253/302/204
f 253/302/205 252/301/205 254/303/205 255/304/205
f 256/305/206 257/306/206 251/300/206 250/299/206
f 253/302/207 255/307/207 256/308/207 250/299/207
f 254/309/208 252/301/208 251/300/208 257/310/208
f 258/311/204 259/312/204 260/313/204 261/314/204
f 261/314/205 260/313/205 262/315/205 263/316/205
f 264/317/206 265/318/206 259/312/206 258/311/206
f 261/314/207 263/319/207 264/320/207 258/311/207
f 262/321/208 260/313/208 259/312/208 265/322/208
f 266/323/209 267/324/209 268/325/209 269/326/209
f 269/326/204 268/325/204 270/327/204 271/328/204
f 271/328/210 270/327/210 272/329/210 273/330/210
f 273/330/211 272/329/211 274/331/211 275/332/211
f 275/332/212 274/331/212 276/333/212 277/334/212
f 277/334/213 276/333/213 278/335/213 279/336/213
f 279/336/214 278/335/214 280/337/214 281/338/214
f 281/338/215 280/337/215 282/339/215 283/340/215
f 284/341/216 285/342/216 286/343/216 287/344/216
f 283/345/217 282/346/217 288/347/217 289/348/217
f 289/348/218 288/347/218 267/324/218 266/323/218
f 266/349/207 290/350/207 289/351/207
f 291/352/208 292/353/208 268/354/208 267/355/208
f 292/353/208 293/356/208 270/357/208 268/354/208
f 293/356/208 294/358/208 272/359/208 270/357/208
f 294/358/208 295/360/208 274/361/208 272/359/208
f 295/360/208 285/342/208 276/362/208 274/361/208
f 285/342/208 284/341/208 278/363/208 276/362/208
f 284/341/208 296/364/208 280/365/208 278/363/208
f 296/364/208 297/366/208 282/367/208 280/365/208
f 297/366/208 298/368/208 288/369/208 282/367/208
f 298/368/208 291/352/208 267/355/208 288/369/208
f 294/358/219 293/356/219 299/370/219 300/371/219
f 291/352/220 298/368/220 301/372/220 302/373/220
f 296/364/221 284/341/221 287/344/221 303/374/221
f 295/360/222 294/358/222 300/371/222 304/375/222
f 292/353/223 291/352/223 302/373/223 305/376/223
f 297/366/224 296/364/224 303/374/224 306/377/224
f 285/342/225 295/360/225 304/375/225 286/343/225
f 293/356/226 292/353/226 305/376/226 299/370/226
f 298/368/227 297/366/227 306/377/227 301/372/227
f 289/351/207 290/350/207 283/378/207
f 283/378/207 290/350/207 281/379/207
f 281/379/207 290/350/207 279/380/207
f 279/380/207 290/350/207 277/381/207
f 277/381/207 290/350/207 275/382/207
f 275/382/207 290/350/207 273/383/207
f 273/383/207 290/350/207 271/384/207
f 271/384/207 290/350/207 269/385/207
f 269/385/207 290/350/207 266/349/207
f 307/386/228 308/387/228 309/388/228
f 310/389/208 311/390/208 305/391/208 302/392/208
f 311/390/208 312/393/208 299/394/208 305/391/208
f 312/393/208 313/395/208 300/396/208 299/394/208
f 313/395/208 314/397/208 304/398/208 300/396/208
f 314/397/208 315/399/208 286/400/208 304/398/208
f 315/399/208 308/401/208 287/402/208 286/400/208
f 308/401/208 307/403/208 303/404/208 287/402/208
f 307/403/208 316/405/208 306/406/208 303/404/208
f 316/405/208 317/407/208 301/408/208 306/406/208
f 317/407/208 310/389/208 302/392/208 301/408/208
f 314/409/229 313/410/229 309/388/229
f 311/411/230 310/412/230 309/388/230
f 316/413/231 307/386/231 309/388/231
f 315/414/232 314/409/232 309/388/232
f 312/415/233 311/411/233 309/388/233
f 317/416/234 316/413/234 309/388/234
f 308/387/235 315/414/235 309/388/235
f 313/410/236 312/415/236 309/388/236
f 310/412/237 317/416/237 309/388/237
o dial
v -0.494975 -0.002500 0.565685
v -0.494975 0.032500 0.565685
v -0.565685 0.032500 0.494975
v -0.565685 -0.002500 0.494975
v -0.413657 0.007500 0.399515
v -0.413657 -0.002500 0.399515
v -0.399515 0.007500 0.413657
v -0.399515 -0.002500 0.413657
v -0.413657 -0.002500 -0.399515
v -0.413657 0.007500 -0.399515
v -0.565685 0.032500 -0.494975
v -0.565685 -0.002500 -0.494975
v -0.494975 0.032500 -0.565685
v -0.494975 -0.002500 -0.565685
v -0.399515 0.007500 -0.413657
v -0.399515 -0.002500 -0.413657
v 0.494975 -0.002500 0.565685
v 0.494975 0.032500 0.565685
v 0.399515 0.007500 0.413657
v 0.399515 -0.002500 0.413657
v 0.413657 0.007500 0.399515
v 0.413657 -0.002500 0.399515
v 0.565685 0.032500 0.494975
v 0.565685 -0.002500 0.494975
v 0.413657 -0.002500 -0.399515
v 0.413657 0.007500 -0.399515
v 0.399515 0.007500 -0.413657
v 0.399515 -0.002500 -0.413657
v 0.494975 0.032500 -0.565685
v 0.494975 -0.002500 -0.565685
v 0.565685 0.032500 -0.494975
v 0.565685 -0.002500 -0.494975
v -0.525000 0.032500 0.037500
v -0.525000 -0.002500 0.037500
v -0.585000 -0.002500 0.037500
v -0.585000 0.032500 0.037500
v -0.610000 0.032500 0.037500
v -0.585000 0.032500 -0.062500
v -0.610000 0.032500 -0.062500
v -0.500000 -0.002500 0.037500
v -0.500000 0.032500 0.037500
v -0.500000 0.032500 0.062500
v -0.500000 -0.002500 0.062500
v -0.525000 0.032500 0.062500
v -0.525000 -0.002500 0.062500
v -0.585000 0.032500 0.062500
v -0.610000 0.032500 0.062500
v -0.585000 -0.002500 0.062500
v -0.610000 -0.002500 0.037500
v -0.670000 -0.002500 0.037500
v -0.670000 0.032500 0.037500
v -0.610000 -0.002500 0.062500
v -0.670000 -0.002500 0.062500
v -0.670000 0.032500 0.062500
v -0.695000 0.032500 0.062500
v -0.695000 -0.002500 0.062500
v -0.695000 0.032500 0.037500
v -0.695000 -0.002500 0.037500
v -0.525000 0.032500 -0.062500
v -0.525000 -0.002500 -0.062500
v -0.500000 0.032500 -0.062500
v -0.500000 -0.002500 -0.062500
v -0.585000 -0.002500 -0.062500
v -0.610000 -0.002500 -0.062500
v -0.670000 0.032500 -0.062500
v -0.670000 -0.002500 -0.062500
v -0.695000 -0.002500 -0.062500
v -0.695000 0.032500 -0.062500
v 0.725000 -0.002500 -0.012500
v 0.725000 0.047500 -0.012500
v 0.725000 0.047500 0.012500
v 0.725000 -0.002500 0.012500
v 0.695000 0.047500 -0.000000
v 0.558741 0.047500 -0.050000
v 0.530000 0.047500 -0.037500
v 0.530000 -0.002500 -0.037500
v 0.530000 0.047500 -0.062500
v 0.530000 -0.002500 -0.062500
v 0.725000 0.047500 -0.087500
v 0.725000 -0.002500 -0.087500
v 0.725000 -0.002500 -0.112500
v 0.725000 0.047500 -0.112500
v 0.725000 0.047500 0.087500
v 0.558741 0.047500 0.050000
v 0.530000 0.047500 0.062500
v 0.725000 0.047500 0.112500
v 0.530000 0.047500 0.037500
v 0.530000 -0.002500 0.037500
v 0.530000 -0.002500 0.062500
v 0.725000 -0.002500 0.087500
v 0.725000 -0.002500 0.112500
v 0.560000 -0.002500 -0.050000
v 0.695000 -0.002500 0.000000
v 0.560000 -0.002500 0.050000
v 0.050000 -0.002500 0.725000
v 0.050000 0.047500 0.725000
v 0.050000 0.047500 0.565000
v 0.050000 -0.002500 0.565000
v 0.075000 0.047500 0.530000
v 0.050000 0.047500 0.530000
v 0.075000 -0.002500 0.725000
v 0.075000 0.047500 0.725000
v 0.050000 -0.002500 0.530000
v 0.075000 -0.002500 0.530000
v -0.050000 0.047500 0.725000
v -0.050000 0.047500 0.690000
v -0.075000 0.047500 0.725000
v -0.050000 -0.002500 0.725000
v -0.050000 -0.002500 0.690000
v -0.075000 -0.002500 0.725000
v -0.075001 -0.002500 0.530000
v -0.075001 0.047500 0.530000
v -0.050001 0.047500 0.530000
v -0.050001 -0.002500 0.530000
v -0.037500 0.047500 -0.700000
v -0.037500 0.047500 -0.725000
v -0.062500 0.047500 -0.700000
v -0.037500 -0.002500 -0.725000
v 0.037500 0.047500 -0.725000
v 0.037500 -0.002500 -0.725000
v 0.037500 0.047500 -0.700000
v 0.062500 0.047500 -0.700000
v 0.037500 -0.002500 -0.700000
v -0.037500 -0.002500 -0.700000
v -0.062500 -0.002500 -0.700000
v -0.062500 0.047500 -0.640000
v -0.037500 0.047500 -0.640000
v 0.062500 -0.002500 -0.700000
v 0.037500 0.047500 -0.687500
v 0.062500 0.047500 -0.687500
v 0.037500 -0.002500 -0.687500
v 0.062500 -0.002500 -0.687500
v -0.062500 -0.002500 -0.640000
v -0.037500 -0.002500 -0.640000
v -0.037500 -0.002500 -0.615000
v -0.037500 0.047500 -0.615000
v 0.037500 -0.002500 -0.615000
v 0.037500 0.047500 -0.615000
v 0.037500 0.047500 -0.640000
v 0.037500 -0.002500 -0.640000
v 0.062500 0.047500 -0.615000
v 0.062500 -0.002500 -0.615000
v 0.062500 0.047500 -0.555000
v 0.062500 -0.002500 -0.555000
v 0.037500 -0.002500 -0.555000
v 0.037500 0.047500 -0.555000
v 0.037500 0.047500 -0.530000
v 0.037500 -0.002500 -0.530000
v -0.037500 0.047500 -0.530000
v -0.037500 -0.002500 -0.530000
v -0.037500 0.047500 -0.555000
v -0.062500 0.047500 -0.555000
v -0.037500 -0.002500 -0.555000
v -0.062500 -0.002500 -0.555000
v -0.037500 0.047500 -0.567500
v -0.062500 0.047500 -0.567500
v -0.037500 -0.002500 -0.567500
v -0.062500 -0.002500 -0.567500
vn -0.7071 -0.0000 0.7071
vn -0.5318 -0.0000 -0.8469
vn 0.7071 -0.0000 -0.7071
vn 0.8469 -0.0000 0.5318
vn 0.1000 0.9899 -0.1000
vn -0.5318 -0.0000 0.8469
vn -0.7071 -0.0000 -0.7071
vn 0.8469 -0.0000 -0.5318
vn 0.7071 -0.0000 0.7071
vn 0.1000 0.9899 0.1000
vn -0.8469 -0.0000 0.5318
vn 0.5318 -0.0000 -0.8469
vn -0.1000 0.9899 -0.1000
vn -0.8469 -0.0000 -0.5318
vn 0.5318 -0.0000 0.8469
vn -0.1000 0.9899 0.1000
vn -0.0000 -0.0000 -1.0000
vn -0.0000 1.0000 -0.0000
vn 1.0000 -0.0000 -0.0000
vn -0.0000 -0.0000 1.0000
vn -1.0000 -0.0000 -0.0000
vn -0.2484 -0.0000 -0.9687
vn 0.2208 0.0028 0.9753
vn 0.2208 0.0028 -0.9753
vn -0.2216 -0.0000 0.9751
vn -0.2216 -0.0000 -0.9751
vn -0.2484 -0.0000 0.9687
vn 0.8480 -0.0000 0.5300
vn -0.8480 -0.0000 -0.5300
vt 0.683135 0.290838
vt 0.662548 0.290838
vt 0.662548 0.232018
vt 0.683135 0.232018
vt 0.677253 0.126428
vt 0.683135 0.126428
vt 0.677253 0.114664
vt 0.683135 0.114664
vt 0.662549 0.009080
vt 0.683135 0.009080
vt 0.622118 0.426992
vt 0.726097 0.403464
vt 0.726097 0.462283
vt 0.622118 0.438755
vt 0.642769 0.284737
vt 0.622182 0.284737
vt 0.622182 0.249445
vt 0.642769 0.249445
vt 0.361801 0.135624
vt 0.361801 0.106215
vt 0.479439 0.106215
vt 0.479439 0.135624
vt 0.726568 0.211213
vt 0.705981 0.211213
vt 0.705981 0.196508
vt 0.726568 0.196508
vt 0.705981 0.181803
vt 0.726568 0.181803
vt 0.361801 0.006222
vt 0.361801 0.035632
vt 0.332392 0.035632
vt 0.332392 0.006222
vt 0.332392 0.106215
vt 0.332392 0.135624
vt 0.705981 0.146512
vt 0.726568 0.146512
vt 0.642769 0.117102
vt 0.622182 0.117102
vt 0.622182 0.081811
vt 0.642769 0.081811
vt 0.705981 0.131807
vt 0.726568 0.131807
vt 0.726568 0.096516
vt 0.705981 0.096516
vt 0.705981 0.081811
vt 0.726568 0.081811
vt 0.361801 0.206207
vt 0.332392 0.206207
vt 0.705981 0.067106
vt 0.726568 0.067106
vt 0.361801 0.235616
vt 0.332392 0.235616
vt 0.642769 0.343556
vt 0.622182 0.343556
vt 0.642769 0.358261
vt 0.622182 0.358261
vt 0.642769 0.190626
vt 0.622182 0.190626
vt 0.622182 0.175921
vt 0.642769 0.175921
vt 0.642769 0.022992
vt 0.622182 0.022992
vt 0.622182 0.008287
vt 0.642769 0.008287
vt 0.479439 0.206207
vt 0.479439 0.235617
vt 0.705981 0.008287
vt 0.726568 0.008287
vt 0.479439 0.006222
vt 0.479439 0.035632
vt 0.726568 0.270032
vt 0.705981 0.270032
vt 0.542878 0.232452
vt 0.513477 0.232452
vt 0.513477 0.218288
vt 0.542878 0.218288
vt 0.137236 0.237970
vt 0.151941 0.202678
vt 0.166646 0.237970
vt 0.093120 0.042385
vt 0.107824 0.008575
vt 0.513477 0.335115
vt 0.542878 0.335115
vt 0.542878 0.352056
vt 0.513477 0.352056
vt 0.078415 0.008575
vt 0.513477 0.432647
vt 0.542878 0.432647
vt 0.542878 0.447334
vt 0.513477 0.447334
vt 0.049007 0.237969
vt 0.019598 0.237969
vt 0.254874 0.237968
vt 0.210758 0.042385
vt 0.225463 0.008575
vt 0.284284 0.237967
vt 0.196053 0.008575
vt 0.542878 0.135093
vt 0.513477 0.135093
vt 0.513477 0.119394
vt 0.542878 0.119394
vt 0.542878 0.018633
vt 0.513477 0.018633
vt 0.513477 0.003585
vt 0.542878 0.003585
vt 0.542878 0.468528
vt 0.513477 0.468528
vt 0.212340 0.445841
vt 0.241749 0.487014
vt 0.212340 0.487014
vt 0.212340 0.257620
vt 0.241749 0.257620
vt 0.094702 0.257620
vt 0.094702 0.298794
vt 0.065292 0.257620
vt 0.094701 0.487015
vt 0.065291 0.487015
vt 0.447918 0.291565
vt 0.447918 0.262156
vt 0.477328 0.291565
vt 0.588362 0.078811
vt 0.558952 0.078811
vt 0.558952 0.034697
vt 0.588362 0.034697
vt 0.359690 0.262156
vt 0.359690 0.291565
vt 0.330280 0.291565
vt 0.588119 0.279214
vt 0.558709 0.279214
vt 0.558709 0.235100
vt 0.588119 0.235100
vt 0.588362 0.099607
vt 0.558952 0.099607
vt 0.477328 0.362148
vt 0.447918 0.362148
vt 0.558952 0.013901
vt 0.588362 0.013901
vt 0.359690 0.306270
vt 0.330280 0.306270
vt 0.558709 0.286566
vt 0.588119 0.286566
vt 0.588119 0.301271
vt 0.558709 0.301271
vt 0.558952 0.006549
vt 0.588362 0.006549
vt 0.588362 0.134898
vt 0.558952 0.134898
vt 0.558709 0.199808
vt 0.588119 0.199808
vt 0.588362 0.155694
vt 0.558952 0.155694
vt 0.447918 0.391558
vt 0.588362 0.199808
vt 0.558952 0.199808
vt 0.359690 0.391558
vt 0.359690 0.362148
vt 0.558709 0.155694
vt 0.588119 0.155694
vt 0.558709 0.134898
vt 0.588119 0.134898
vt 0.330280 0.391558
vt 0.558709 0.099607
vt 0.588119 0.099607
vt 0.588362 0.235100
vt 0.558952 0.235100
vt 0.359690 0.462140
vt 0.330280 0.462141
vt 0.558709 0.078811
vt 0.588119 0.078811
vt 0.558709 0.034697
vt 0.588119 0.034697
vt 0.359690 0.491550
vt 0.447918 0.491550
vt 0.447918 0.462140
vt 0.477328 0.462140
vt 0.588362 0.279214
vt 0.558952 0.279214
vt 0.558709 0.013901
vt 0.588119 0.013901
vt 0.447918 0.447436
vt 0.477328 0.447436
vt 0.558952 0.286566
vt 0.588362 0.286566
vt 0.588362 0.301271
vt 0.558952 0.301271
vt 0.558709 0.006549
vt 0.588119 0.006549
s 0
usemtl material
f 318/417/238 319/418/238 320/419/238 321/420/238
f 321/420/239 320/419/239 322/421/239 323/422/239
f 323/422/240 322/421/240 324/423/240 325/424/240
f 325/424/241 324/423/241 319/425/241 318/426/241
f 322/427/242 320/428/242 319/429/242 324/430/242
f 326/424/243 327/423/243 328/425/243 329/426/243
f 329/417/244 328/418/244 330/419/244 331/420/244
f 331/420/245 330/419/245 332/421/245 333/422/245
f 333/422/246 332/421/246 327/423/246 326/424/246
f 330/428/247 328/429/247 327/430/247 332/427/247
f 334/420/248 335/419/248 336/421/248 337/422/248
f 337/422/244 336/421/244 338/423/244 339/424/244
f 339/424/249 338/423/249 340/425/249 341/426/249
f 341/417/246 340/418/246 335/419/246 334/420/246
f 338/430/250 336/427/250 335/428/250 340/429/250
f 342/422/238 343/421/238 344/423/238 345/424/238
f 345/424/251 344/423/251 346/425/251 347/426/251
f 347/417/240 346/418/240 348/419/240 349/420/240
f 349/420/252 348/419/252 343/421/252 342/422/252
f 346/429/253 344/430/253 343/427/253 348/428/253
f 350/431/254 351/432/254 352/433/254 353/434/254
f 354/435/255 353/436/255 355/437/255 356/438/255
f 357/439/256 358/440/256 359/441/256 360/442/256
f 360/442/257 359/441/257 361/443/257 362/444/257
f 358/445/255 350/446/255 361/447/255 359/448/255
f 363/449/255 353/436/255 354/435/255 364/450/255
f 362/444/257 361/443/257 363/451/257 365/452/257
f 361/447/255 350/446/255 353/436/255 363/449/255
f 354/453/254 366/454/254 367/455/254 368/456/254
f 365/452/257 363/451/257 364/457/257 369/458/257
f 370/459/257 371/460/257 372/461/257 373/462/257
f 369/458/257 364/457/257 371/460/257 370/459/257
f 364/450/255 354/435/255 368/463/255 371/464/255
f 373/462/258 372/461/258 374/465/258 375/466/258
f 371/464/255 368/463/255 374/467/255 372/468/255
f 351/432/258 350/431/258 376/469/258 377/470/258
f 377/470/254 376/469/254 378/471/254 379/472/254
f 355/473/254 380/474/254 381/475/254 356/476/254
f 382/477/254 383/478/254 384/479/254 385/480/254
f 368/456/256 367/455/256 383/478/256 382/477/256
f 374/467/255 368/463/255 382/481/255 385/482/255
f 353/434/256 352/433/256 380/474/256 355/473/256
f 375/466/258 374/465/258 385/483/258 384/484/258
f 350/446/255 358/445/255 378/485/255 376/486/255
f 358/440/256 357/439/256 379/487/256 378/488/256
f 366/454/258 354/453/258 356/476/258 381/475/258
f 386/489/256 387/490/256 388/491/256 389/492/256
f 387/493/255 390/494/255 388/495/255
f 390/494/255 387/493/255 391/496/255 392/497/255
f 393/498/258 392/499/258 394/500/258 395/501/258
f 391/496/255 394/502/255 392/497/255
f 396/503/256 397/504/256 398/505/256 399/506/256
f 391/496/255 396/507/255 399/508/255 394/502/255
f 400/509/255 401/510/255 402/511/255 403/512/255
f 401/510/255 404/513/255 402/511/255
f 404/514/258 405/515/258 406/516/258 402/517/258
f 390/494/255 404/513/255 401/510/255 388/495/255
f 407/518/256 400/519/256 403/520/256 408/521/256
f 399/522/259 398/523/259 395/501/259 394/500/259
f 396/503/260 391/498/260 409/499/260 397/504/260
f 387/490/261 386/489/261 409/499/261 391/498/261
f 392/499/262 393/498/262 410/490/262 390/489/262
f 390/489/263 410/490/263 405/515/263 404/514/263
f 388/491/260 401/516/260 411/517/260 389/492/260
f 401/516/261 400/519/261 407/518/261 411/517/261
f 402/517/264 406/516/264 408/520/264 403/521/264
f 412/515/258 413/514/258 414/489/258 415/490/258
f 414/524/255 416/525/255 417/526/255
f 418/516/257 419/517/257 413/514/257 412/515/257
f 416/525/255 414/524/255 413/527/255 419/528/255
f 420/499/254 417/498/254 416/501/254 421/500/254
f 422/529/255 423/530/255 424/531/255
f 415/490/265 414/489/265 422/499/265 425/498/265
f 417/498/266 420/499/266 426/489/266 423/490/266
f 414/524/255 417/526/255 423/530/255 422/529/255
f 425/498/257 422/499/257 424/500/257 427/501/257
f 428/523/258 427/501/258 424/500/258 429/522/258
f 430/515/254 431/514/254 428/517/254 429/516/254
f 423/490/256 426/489/256 431/514/256 430/515/256
f 424/531/255 423/530/255 430/532/255 429/533/255
f 416/501/256 419/523/256 418/522/256 421/500/256
f 432/534/255 433/535/255 434/536/255
f 435/537/254 433/538/254 436/539/254 437/540/254
f 436/541/255 438/542/255 439/543/255
f 440/544/257 438/545/257 432/546/257 441/547/257
f 436/541/255 433/535/255 432/534/255 438/542/255
f 433/538/244 435/537/244 442/548/244 434/549/244
f 432/534/255 434/536/255 443/550/255 444/551/255
f 437/540/240 436/539/240 439/552/240 445/553/240
f 439/543/255 438/542/255 446/554/255 447/555/255
f 446/556/257 448/557/257 449/558/257 447/559/257
f 438/545/258 440/544/258 448/557/258 446/556/258
f 445/553/256 439/552/256 447/560/256 449/561/256
f 434/549/258 442/548/258 450/562/258 443/563/258
f 441/547/256 432/546/256 444/564/256 451/565/256
f 443/563/238 450/562/238 452/566/238 453/567/238
f 444/551/255 443/550/255 453/568/255
f 453/567/257 452/566/257 454/569/257 455/570/257
f 444/551/255 453/568/255 455/571/255 456/572/255
f 451/565/254 444/564/254 456/573/254 457/574/254
f 457/574/240 456/573/240 458/575/240 459/576/240
f 456/572/255 455/571/255 458/577/255
f 459/576/256 458/575/256 460/578/256 461/579/256
f 455/570/258 454/569/258 462/580/258 463/581/258
f 458/577/255 455/571/255 463/582/255 460/583/255
f 464/584/246 465/585/246 461/579/246 460/578/246
f 465/585/257 464/584/257 466/586/257 467/587/257
f 460/583/255 463/582/255 464/588/255
f 466/589/255 468/590/255 469/591/255
f 463/581/254 462/580/254 470/592/254 468/593/254
f 464/588/255 463/582/255 468/590/255 466/589/255
f 467/587/238 466/586/238 469/594/238 471/595/238
f 469/591/255 468/590/255 472/596/255 473/597/255
f 472/598/254 474/599/254 475/600/254 473/601/254
f 471/595/258 469/594/258 473/602/258 475/603/258
f 468/593/256 470/592/256 474/599/256 472/598/256
o fase
v -0.309017 -0.550000 -0.958057
v -0.309017 0.100000 -0.958057
v 0.309017 0.100000 -0.958056
v 0.309017 -0.550000 -0.958056
vn -0.0000 -0.0000 -1.0000
vt 0.999200 0.000100
vt 0.999200 0.999900
vt 0.000100 0.999900
vt 0.000100 0.000100
s 0
usemtl task
f 476/604/267 477/605/267 478/606/267 479/607/267
