mtllib npcteleporter.mtl
o body
v 0.559272 0.490430 0.523438
v 0.495430 0.615728 0.523438
v 0.559272 0.490430 0.476562
v 0.495430 0.615728 0.476562
v 0.684570 0.554272 0.523438
v 0.620728 0.679570 0.523438
v 0.684570 0.554272 0.476562
v 0.620728 0.679570 0.476562
vn -0.8910 -0.4540 -0.0000
vn -0.0000 -0.0000 -1.0000
vn 0.8910 0.4540 -0.0000
vn -0.0000 -0.0000 1.0000
vn 0.4540 -0.8910 -0.0000
vn -0.4540 0.8910 -0.0000
vt 0.187505 0.187491
vt 0.187505 0.812503
vt 0.250021 0.812503
vt 0.250021 0.187491
vt 0.187579 0.187522
vt 0.187579 0.812478
vt 0.812491 0.812478
vt 0.812491 0.187522
vt 0.750005 0.187491
vt 0.750005 0.812503
vt 0.812521 0.812503
vt 0.812521 0.187491
vt 0.187507 0.250005
vt 0.812519 0.250005
vt 0.187507 0.812505
vt 0.187507 0.749988
vt 0.812519 0.749988
s 0
usemtl body
f 1/1/1 2/2/1 4/3/1 3/4/1
f 3/5/2 4/6/2 8/7/2 7/8/2
f 7/9/3 8/10/3 6/11/3 5/12/3
f 5/12/4 6/11/4 2/6/4 1/5/4
f 3/13/5 7/14/5 5/12/5 1/1/5
f 8/7/6 4/15/6 2/16/6 6/17/6
o feather
v 0.243000 0.382000 0.500000
v 0.243000 1.007000 0.500000
v 0.243000 0.382000 0.499500
v 0.243000 1.007000 0.499500
v 0.743000 0.382000 0.500000
v 0.743000 1.007000 0.500000
v 0.743000 0.382000 0.499500
v 0.743000 1.007000 0.499500
vn -0.0000 -0.0000 -1.0000
vn -0.0000 -0.0000 1.0000
vt 0.999900 0.000100
vt 0.999900 0.999900
vt 0.000100 0.999900
vt 0.000100 0.000100
s 0
usemtl feather
f 11/18/7 12/19/7 16/20/7 15/21/7
f 13/21/8 14/20/8 10/19/8 9/18/8
