mtllib npcitem.mtl
o lever
v 0.511959 0.031250 0.471129
v 0.511959 0.250000 0.471129
v 0.528871 0.031250 0.488041
v 0.528871 0.250000 0.488041
v 0.528871 0.031250 0.511959
v 0.528871 0.250000 0.511959
v 0.511959 0.031250 0.528871
v 0.511959 0.250000 0.528871
v 0.488041 0.031250 0.528871
v 0.488041 0.250000 0.528871
v 0.471129 0.031250 0.511959
v 0.471129 0.250000 0.511959
v 0.471129 0.031250 0.488041
v 0.471129 0.250000 0.488041
v 0.488041 0.031250 0.471129
v 0.488041 0.250000 0.471129
v 0.499997 0.000000 0.500007
v 0.529459 0.312500 0.471129
v 0.529459 0.312500 0.528871
v 0.470541 0.312500 0.528871
v 0.470541 0.312500 0.471129
vn 0.7071 -0.0000 -0.7071
vn 1.0000 -0.0000 -0.0000
vn 0.7071 -0.0000 0.7071
vn -0.7071 -0.0000 0.7071
vn -1.0000 -0.0000 -0.0000
vn -0.6936 -0.1942 0.6936
vn -0.7071 -0.0000 -0.7071
vn -0.0000 -0.6785 0.7346
vn -0.5194 -0.6786 -0.5194
vn -0.7345 -0.6786 -0.0000
vn -0.5194 -0.6785 0.5194
vn -0.0000 -0.6787 -0.7344
vn 0.5194 -0.6786 0.5194
vn 0.7345 -0.6786 -0.0000
vn 0.5193 -0.6787 -0.5193
vn 0.6936 -0.1942 -0.6936
vn 0.6936 -0.1942 0.6936
vn -1.0000 -0.0094 -0.0000
vn -0.0000 -0.0000 -1.0000
vn -0.6936 -0.1942 -0.6936
vn 1.0000 -0.0094 -0.0000
vn -0.0000 -0.0000 1.0000
vt 0.111482 0.021524
vt 0.187714 0.218283
vt 0.164845 0.227697
vt 0.092931 0.035647
vt 0.141599 0.236372
vt 0.073273 0.043019
vt 0.118990 0.243360
vt 0.049781 0.044483
vt 0.111473 0.021524
vt 0.187709 0.218282
vt 0.164841 0.227698
vt 0.092922 0.035647
vt 0.141594 0.236372
vt 0.073265 0.043019
vt 0.201929 0.282590
vt 0.118985 0.243361
vt 0.049772 0.044484
vt 0.038605 0.999972
vt 0.022942 0.944271
vt 0.054259 0.944271
vt 0.068480 0.000065
vt 0.022941 0.055742
vt 0.038604 0.000028
vt 0.054259 0.055742
vt 0.201933 0.282591
vt 0.147472 0.301541
vt 0.147469 0.301541
vt 0.054259 0.342168
vt 0.022942 0.342168
vt 0.077173 0.424004
vt 0.000028 0.424005
vt 0.022942 0.657848
vt 0.054259 0.657847
vt 0.000028 0.576012
vt 0.077173 0.576012
s 0
usemtl wood
f 1/1/1 2/2/1 4/3/1 3/4/1
f 3/4/2 4/3/2 6/5/2 5/6/2
f 5/6/3 6/5/3 8/7/3 7/8/3
f 9/9/4 10/10/4 12/11/4 11/12/4
f 11/12/5 12/11/5 14/13/5 13/14/5
f 12/11/6 10/10/6 20/15/6
f 13/14/7 14/13/7 16/16/7 15/17/7
f 17/18/8 7/19/8 9/20/8
f 15/17/9 17/21/9 13/14/9
f 13/14/10 17/21/10 11/12/10
f 11/12/11 17/21/11 9/9/11
f 1/22/12 17/23/12 15/24/12
f 7/8/13 17/21/13 5/6/13
f 5/6/14 17/21/14 3/4/14
f 3/4/15 17/21/15 1/1/15
f 4/3/16 2/2/16 18/25/16
f 8/7/17 6/5/17 19/26/17
f 14/13/18 12/11/18 20/15/18 21/27/18
f 1/22/19 15/24/19 16/28/19 2/29/19
f 16/16/20 14/13/20 21/27/20
f 6/5/21 4/3/21 18/25/21 19/26/21
f 16/28/19 21/30/19 18/31/19 2/29/19
f 7/19/22 8/32/22 10/33/22 9/20/22
f 10/33/22 8/32/22 19/34/22 20/35/22
o screen
v 0.539459 0.430001 0.550000
v 0.539459 0.430001 0.450000
v 0.460541 0.430001 0.450000
v 0.460541 0.430001 0.550000
v 0.460541 0.340000 0.449999
v 0.460541 0.340000 0.550001
v 0.539459 0.340000 0.550001
v 0.539459 0.340000 0.449999
v 0.529459 0.330000 0.560001
v 0.529459 0.440001 0.560000
v 0.470541 0.330000 0.439999
v 0.470541 0.440001 0.440000
v 0.470541 0.440001 0.560000
v 0.470541 0.330000 0.560001
v 0.529459 0.440001 0.440000
v 0.529459 0.330000 0.439999
vn -1.0000 -0.0000 -0.0000
vn 1.0000 -0.0000 -0.0000
vn 0.7071 -0.0000 0.7071
vn -0.7071 -0.0000 -0.7071
vn -0.7071 -0.0000 0.7071
vn 0.7071 -0.0000 -0.7071
vn -0.7071 -0.7071 -0.0000
vn 0.7071 -0.7071 -0.0000
vn -0.7071 0.7071 -0.0000
vn 0.7071 0.7071 -0.0000
vt 0.250007 0.249990
vt 0.750021 0.250011
vt 0.750000 0.749999
vt 0.250020 0.749975
vt 0.187498 0.812502
vt 0.187516 0.187522
vt 0.812488 0.187534
vt 0.812489 0.812485
s 0
usemtl block
f 26/36/23 27/37/23 25/38/23 24/39/23
f 28/36/24 29/37/24 23/38/24 22/39/24
f 28/36/25 22/39/25 31/40/25 30/41/25
f 26/36/26 24/39/26 33/40/26 32/41/26
f 25/38/27 27/37/27 35/42/27 34/43/27
f 23/38/28 29/37/28 37/42/28 36/43/28
f 27/37/29 26/36/29 32/41/29 35/42/29
f 29/37/30 28/36/30 30/41/30 37/42/30
f 24/39/31 25/38/31 34/43/31 33/40/31
f 22/39/32 23/38/32 36/43/32 31/40/32
o tip
v 0.529459 0.312500 0.471129
v 0.529459 0.312500 0.528871
v 0.470541 0.312500 0.528871
v 0.470541 0.312500 0.471129
v 0.519459 0.343750 0.346129
v 0.480541 0.343750 0.346129
v 0.519459 0.437500 0.346129
v 0.480541 0.437500 0.346129
v 0.480541 0.343750 0.653871
v 0.519459 0.343750 0.653871
v 0.480541 0.437500 0.653871
v 0.519459 0.437500 0.653871
v 0.490541 0.406250 0.716371
v 0.509459 0.406250 0.716371
v 0.490541 0.422500 0.716371
v 0.509459 0.422500 0.716371
v 0.509459 0.406250 0.283629
v 0.490541 0.406250 0.283629
v 0.509459 0.422500 0.283629
v 0.490541 0.422500 0.283629
v 0.529459 0.460001 0.530033
v 0.529459 0.460001 0.469952
v 0.470541 0.460001 0.469952
v 0.470541 0.460001 0.530033
v 0.529459 1.093750 0.530033
v 0.529459 1.093750 0.469952
v 0.470541 1.093750 0.469952
v 0.470541 1.093750 0.530033
v 0.519459 1.187500 0.499992
v 0.480541 1.187500 0.499992
v 0.480541 0.390625 0.346129
v 0.480541 0.390625 0.653871
v 0.519459 0.390625 0.653871
v 0.519459 0.390625 0.346129
v 0.529459 0.330000 0.560001
v 0.529459 0.440001 0.560000
v 0.470541 0.330000 0.439999
v 0.470541 0.440001 0.440000
v 0.470541 0.440001 0.560000
v 0.470541 0.330000 0.560001
v 0.529459 0.440001 0.440000
v 0.529459 0.330000 0.439999
v 0.500000 0.450001 0.440000
v 0.500000 0.450001 0.560000
v 0.500000 1.104102 0.559951
v 0.500000 1.104102 0.439951
v 0.500000 1.157852 0.544899
v 0.500000 1.157852 0.454899
v 0.500000 1.219826 0.499937
v 0.470541 0.776876 0.469952
v 0.470541 0.776876 0.530033
v 0.529459 0.776876 0.530033
v 0.529459 0.776876 0.469952
v 0.500000 0.777052 0.439975
v 0.500000 0.777052 0.559975
vn 0.9920 -0.0550 -0.1137
vn 0.9944 -0.0000 -0.1059
vn -0.9944 -0.0000 -0.1059
vn 0.9920 -0.0550 0.1137
vn -0.9920 -0.0550 0.1137
vn 0.9944 -0.0000 0.1059
vn -0.9944 -0.0000 0.1059
vn -0.0000 -0.9701 -0.2425
vn -0.9920 -0.0550 -0.1137
vn -0.0000 -0.7071 -0.7071
vn -0.0000 -0.0000 -1.0000
vn -0.0000 0.9724 -0.2334
vn -0.0000 0.9724 0.2334
vn -0.0000 -0.0000 1.0000
vn -0.0000 -0.7071 0.7071
vn -0.0000 -0.9701 0.2425
vn -0.3209 0.9453 0.0594
vn -0.0000 0.9912 0.1320
vn -1.0000 -0.0000 -0.0000
vn 1.0000 -0.0000 -0.0000
vn 0.9944 0.1061 -0.0000
vn -0.9944 0.1061 -0.0000
vn -0.2717 0.8005 0.5342
vn 0.2717 0.8005 0.5342
vn 0.3209 0.9453 0.0594
vn 0.3209 0.9453 -0.0594
vn -0.0000 0.9912 -0.1320
vn -0.3209 0.9453 -0.0594
vn -0.2717 0.8004 -0.5344
vn 0.2717 0.8004 -0.5344
vn -0.9874 -0.0000 -0.1580
vn -0.9874 -0.0000 0.1580
vn 0.9874 -0.0000 0.1580
vn 0.9874 -0.0000 -0.1580
vn 0.7868 0.2286 0.5733
vn -0.7868 0.2286 0.5733
vn -0.7134 -0.0000 -0.7008
vn 0.7127 -0.0000 0.7015
vn 0.7134 -0.0000 -0.7008
vn -0.7127 -0.0000 0.7015
vn 0.6995 0.4201 -0.5781
vn -0.6975 0.4208 0.5801
vn -0.7880 0.2279 -0.5719
vn 0.7880 0.2279 -0.5719
vn -0.6995 0.4201 -0.5781
vn 0.6975 0.4208 0.5801
vn -0.7130 -0.0000 0.7012
vn 0.7131 -0.0000 -0.7011
vn 0.7130 -0.0000 0.7012
vn -0.7131 -0.0000 -0.7011
vt 0.322880 0.374685
vt 0.374905 0.435441
vt 0.308903 0.148007
vt 0.205909 0.148007
vt 0.088700 0.374685
vt 0.103731 0.148007
vt 0.374905 0.564016
vt 0.322880 0.625259
vt 0.205909 0.851864
vt 0.308903 0.851864
vt 0.088700 0.625259
vt 0.103731 0.851864
vt 0.888301 0.625832
vt 0.911016 0.918505
vt 0.777185 0.918505
vt 0.799900 0.625832
vt 0.822614 0.425060
vt 0.865586 0.425060
vt 0.822614 0.388148
vt 0.865586 0.388148
vt 0.799899 0.242149
vt 0.888301 0.242149
vt 0.950865 0.695274
vt 0.862463 0.695274
vt 0.885178 0.549275
vt 0.928150 0.549275
vt 0.928150 0.512364
vt 0.885178 0.512363
vt 0.950865 0.311591
vt 0.862463 0.311591
vt 0.973579 0.018918
vt 0.839749 0.018918
vt 0.007876 0.661649
vt 0.906664 0.910382
vt 0.250077 0.999811
vt 0.125138 0.999811
vt 0.125138 0.299997
vt 0.250077 0.299982
vt 0.125138 0.999811
vt 0.187321 0.124934
vt 0.032757 0.568279
vt 0.032757 0.431901
vt 0.007876 0.337986
vt 0.844100 0.027041
vt 0.143719 0.008195
vt 0.179031 0.008195
vt 0.143719 0.992035
vt 0.179031 0.992035
vt 0.030851 0.157484
vt 0.000233 0.269597
vt 0.375020 0.999811
vt 0.375020 0.269571
vt 0.000233 0.999811
vt 0.344142 0.157484
vt 0.187321 0.000218
vt 0.375233 0.290576
vt 0.375233 0.999811
vt 0.500138 0.999811
vt 0.500138 0.312508
vt 0.625077 0.312507
vt 0.750020 0.290576
vt 0.750020 0.999811
vt 0.625077 0.999811
s 0
usemtl chip
f 79/44/33 38/45/33 42/46/33 71/47/33
f 78/48/34 79/44/34 71/47/34 44/49/34
f 74/44/35 75/48/35 45/49/35 68/47/35
f 39/50/36 72/51/36 70/52/36 47/53/36
f 77/51/37 40/50/37 46/53/37 69/52/37
f 72/51/38 73/54/38 49/55/38 70/52/38
f 76/54/39 77/51/39 69/52/39 48/55/39
f 42/56/40 38/57/40 41/58/40 43/59/40
f 41/45/41 74/44/41 68/47/41 43/46/41
f 43/59/42 55/60/42 54/61/42 42/56/42
f 55/60/43 57/62/43 56/63/43 54/61/43
f 45/64/44 44/65/44 56/63/44 57/62/44
f 49/66/45 48/67/45 52/68/45 53/69/45
f 51/70/46 53/69/46 52/68/46 50/71/46
f 47/72/47 51/70/47 50/71/47 46/73/47
f 39/74/48 47/72/48 46/73/48 40/75/48
f 76/54/49 48/55/49 81/76/49
f 49/66/50 81/77/50 48/67/50
f 87/78/51 88/79/51 65/80/51 64/81/51
f 89/82/52 90/78/52 63/81/52 62/80/52
f 62/80/53 63/81/53 66/83/53
f 64/81/54 65/80/54 67/83/54
f 41/45/51 40/50/51 77/51/51 74/44/51
f 39/50/52 38/45/52 79/44/52 72/51/52
f 61/84/51 60/85/51 75/48/51 76/54/51
f 59/85/52 58/84/52 73/54/52 78/48/52
f 76/54/55 81/76/55 61/84/55
f 81/76/56 73/54/56 58/84/56
f 73/54/57 81/76/57 49/55/57
f 78/48/58 44/49/58 80/86/58
f 44/65/59 45/64/59 80/87/59
f 75/48/60 80/86/60 45/49/60
f 75/48/61 60/85/61 80/86/61
f 80/86/62 59/85/62 78/48/62
f 45/49/63 57/88/63 68/47/63
f 57/88/63 55/89/63 68/47/63
f 43/46/63 68/47/63 55/89/63
f 48/55/64 69/52/64 52/90/64
f 50/91/64 52/90/64 69/52/64
f 69/52/64 46/53/64 50/91/64
f 47/53/65 70/52/65 51/91/65
f 70/52/65 49/55/65 51/91/65
f 51/91/65 49/55/65 53/90/65
f 42/46/66 54/89/66 71/47/66
f 71/47/66 54/89/66 44/49/66
f 54/89/66 56/88/66 44/49/66
f 62/80/67 66/83/67 84/92/67 82/93/67
f 82/93/68 84/92/68 67/83/68 65/80/68
f 91/94/69 87/78/69 64/81/69 83/95/69
f 89/82/70 62/80/70 82/93/70 92/96/70
f 90/78/71 91/94/71 83/95/71 63/81/71
f 92/96/72 82/93/72 65/80/72 88/79/72
f 66/83/73 85/97/73 86/98/73
f 84/92/74 86/98/74 67/83/74
f 83/95/75 64/81/75 67/83/75 85/97/75
f 63/81/76 83/95/76 85/97/76 66/83/76
f 85/97/77 67/83/77 86/98/77
f 66/83/78 86/98/78 84/92/78
f 81/99/79 92/100/79 88/101/79 61/102/79
f 59/103/80 80/104/80 91/105/80 90/106/80
f 58/102/81 89/101/81 92/100/81 81/99/81
f 80/104/82 60/103/82 87/106/82 91/105/82
f 58/102/52 59/103/52 90/106/52 89/101/52
f 60/103/51 61/102/51 88/101/51 87/106/51
